<?xml version="1.0" standalone="no"?>
<!DOCTYPE svg PUBLIC "-//W3C//DTD SVG 20010904//EN"
 "http://www.w3.org/TR/2001/REC-SVG-20010904/DTD/svg10.dtd">
<svg version="1.0" xmlns="http://www.w3.org/2000/svg"
 width="420.000000pt" height="420.000000pt" viewBox="0 0 420.000000 420.000000"
 preserveAspectRatio="xMidYMid meet">
<metadata>
Created by potrace 1.14, written by Peter Selinger 2001-2017
</metadata>
<g transform="translate(0.000000,420.000000) scale(0.100000,-0.100000)"
fill="#000000" stroke="none">
<path d="M1303 4158 c-25 -24 -70 -67 -100 -95 -30 -29 -57 -53 -60 -53 -8 0
-103 -103 -103 -113 0 -4 -4 -5 -10 -2 -5 3 -10 0 -10 -9 0 -8 -15 -27 -32
-42 -35 -28 -68 -76 -68 -97 -1 -17 -59 -85 -60 -68 0 24 -28 -7 -35 -41 -4
-18 -15 -32 -26 -35 -13 -4 -23 -20 -30 -49 -6 -24 -15 -44 -19 -44 -8 0 -69
-90 -82 -122 -4 -10 -12 -18 -18 -18 -5 0 -10 -4 -10 -9 0 -5 -16 -25 -36 -45
-22 -22 -34 -42 -30 -51 3 -8 -2 -19 -13 -24 -18 -10 -28 -30 -76 -156 -22
-56 -29 -96 -36 -203 -8 -123 -19 -187 -40 -237 -21 -51 -51 -145 -63 -200
-14 -66 -77 -207 -109 -242 -12 -13 -15 -23 -8 -23 8 0 7 -8 -3 -29 -9 -16
-12 -31 -9 -34 3 -4 0 -13 -6 -21 -27 -32 -42 -247 -22 -313 9 -30 7 -58 -7
-93 -3 -8 -6 -19 -6 -25 -1 -5 -9 -9 -18 -7 -15 2 -66 -64 -60 -81 1 -4 -4 -6
-10 -5 -8 2 -12 -7 -10 -24 2 -14 -2 -29 -7 -33 -6 -3 -11 -15 -11 -25 0 -10
-4 -22 -10 -25 -6 -4 -7 1 -4 12 5 13 2 12 -10 -5 -10 -12 -14 -27 -11 -32 3
-6 -1 -17 -9 -26 -13 -12 -16 -41 -16 -150 0 -74 4 -133 8 -130 10 6 9 -24 0
-39 -7 -12 -11 -265 -4 -265 3 0 21 21 41 46 30 41 44 44 35 9 -2 -5 -4 -19
-5 -30 -1 -11 -7 -33 -14 -50 -7 -16 -15 -46 -17 -65 l-4 -35 9 34 c5 18 16
40 25 49 20 20 20 4 1 -22 -8 -11 -15 -29 -15 -41 0 -12 -4 -25 -10 -31 -5 -5
-11 -42 -12 -81 -3 -77 -12 -82 -27 -18 l-9 40 -1 -44 c-1 -29 5 -51 16 -63
15 -17 15 -20 3 -28 -12 -7 -12 -12 -2 -22 6 -6 12 -19 12 -27 0 -8 7 -23 17
-33 9 -10 13 -21 10 -24 -3 -4 -16 11 -29 32 l-23 39 -3 -40 c-4 -44 5 -105
16 -105 14 0 11 -68 -4 -74 -11 -4 -14 -22 -13 -70 2 -63 2 -65 23 -54 18 10
19 9 9 -4 -7 -8 -9 -19 -5 -23 4 -5 0 -6 -10 -2 -13 5 -16 -2 -16 -44 l-1 -49
2004 0 c1325 0 2006 3 2010 10 3 5 17 10 30 10 13 0 27 -5 30 -10 8 -12 105
-13 105 -1 0 5 -16 28 -36 52 -32 39 -34 44 -17 50 10 4 31 18 46 33 l28 26
-2 145 c-1 103 -4 144 -12 142 -7 -1 -12 9 -13 23 0 14 -3 31 -7 37 -4 7 1 30
13 52 13 27 20 60 20 99 0 49 -4 62 -25 82 -18 17 -25 34 -25 61 0 26 -11 53
-36 90 -20 30 -42 78 -50 107 -8 29 -20 63 -28 75 -26 39 -126 279 -126 302 0
12 11 32 25 45 14 13 25 28 25 34 0 6 36 49 80 95 44 46 82 92 85 102 4 11 10
17 15 14 5 -3 17 21 26 54 10 33 21 58 24 56 3 -2 7 31 9 74 3 86 -16 156 -55
207 -13 17 -25 44 -28 59 -3 15 -12 35 -20 44 -43 47 -166 241 -166 262 0 8
-7 23 -15 33 -8 11 -15 28 -15 38 0 9 -9 26 -20 36 -13 12 -18 25 -14 35 4 10
1 17 -6 17 -7 0 -10 6 -7 14 3 8 -1 22 -8 33 -8 10 -15 28 -15 41 0 24 -49
128 -81 174 -11 15 -18 30 -17 35 3 12 -55 127 -119 235 -162 271 -169 282
-185 272 -5 -3 -16 2 -24 12 -15 18 -15 18 -10 1 9 -29 -16 -15 -41 22 -18 26
-20 35 -10 46 10 10 19 5 49 -29 48 -52 49 -37 2 20 -19 24 -33 44 -29 44 3 0
-8 20 -26 45 -18 25 -38 45 -45 45 -7 0 -16 15 -19 33 -4 18 -15 43 -27 57
-15 19 -18 20 -14 6 6 -16 4 -17 -9 -6 -21 17 -46 66 -39 73 4 3 -13 28 -37
56 -29 34 -46 46 -51 38 -5 -8 -8 -7 -8 4 0 9 -29 45 -65 80 -36 35 -65 69
-65 76 0 15 -51 75 -58 68 -3 -3 4 -12 16 -21 12 -8 22 -21 22 -27 -1 -15 -80
74 -80 90 0 6 -10 15 -22 19 -13 4 -37 17 -54 30 l-31 24 -702 0 -701 0 -47
-42z m37 -3 c-7 -9 -15 -13 -18 -10 -3 2 1 11 8 20 7 9 15 13 18 10 3 -2 -1
-11 -8 -20z m586 -266 c19 -21 19 -21 -9 -8 -15 7 -27 16 -27 21 0 14 16 9 36
-13z m-26 -79 c8 -5 12 -11 10 -14 -3 -2 -14 2 -24 10 -22 15 -10 19 14 4z
m40 -25 c11 -13 10 -14 -4 -9 -9 3 -16 10 -16 15 0 13 6 11 20 -6z m930 -20
c0 -13 5 -27 10 -30 6 -3 10 -12 10 -18 0 -7 -4 -6 -11 3 -8 12 -9 9 -5 -12 7
-30 -11 -49 -25 -27 -5 8 -9 10 -9 4 0 -17 19 -40 26 -32 7 7 17 -20 43 -118
5 -18 3 -41 -4 -58 l-12 -29 -16 44 c-9 24 -17 49 -17 55 0 6 -5 13 -12 15 -6
2 -12 29 -13 62 -1 32 -6 61 -11 64 -6 4 -14 16 -17 27 -7 18 -5 18 10 -2 13
-16 22 -20 32 -14 12 8 12 12 2 25 -8 9 -10 23 -6 33 5 10 7 24 6 32 -1 7 2
10 8 6 6 -3 11 -17 11 -30z m-942 -16 c-12 -7 -24 -7 -35 0 -15 9 -12 10 17
10 29 0 32 -1 18 -10z m1187 -19 c3 -5 1 -10 -4 -10 -6 0 -11 5 -11 10 0 6 2
10 4 10 3 0 8 -4 11 -10z m55 -74 c0 -13 -29 14 -42 38 -10 18 -7 17 15 -4 15
-14 27 -29 27 -34z m-260 23 c0 -6 -4 -7 -10 -4 -5 3 -10 11 -10 16 0 6 5 7
10 4 6 -3 10 -11 10 -16z m-105 -19 c3 -5 1 -10 -4 -10 -6 0 -11 5 -11 10 0 6
2 10 4 10 3 0 8 -4 11 -10z m5 -79 c0 -7 11 -26 25 -43 14 -16 25 -37 25 -46
0 -9 10 -40 22 -69 12 -29 18 -56 13 -60 -4 -5 -10 -2 -12 5 -3 6 -9 10 -14 7
-4 -3 -11 6 -15 20 -7 27 -19 33 -27 13 -3 -7 -6 -3 -6 10 -1 13 3 20 9 17 12
-7 14 18 3 29 -5 4 -8 11 -9 14 0 4 -6 21 -13 37 -7 17 -15 40 -17 52 -2 12
-9 35 -14 50 l-10 28 20 -25 c11 -14 20 -31 20 -39z m398 14 c-3 -3 -13 7 -23
22 l-17 28 23 -22 c12 -12 20 -25 17 -28z m-1358 9 c0 -8 -4 -14 -10 -14 -5 0
-10 9 -10 21 0 11 5 17 10 14 6 -3 10 -13 10 -21z m1405 -34 c3 -5 1 -10 -4
-10 -6 0 -11 5 -11 10 0 6 2 10 4 10 3 0 8 -4 11 -10z m96 -47 c13 -16 12 -17
-3 -4 -17 13 -22 21 -14 21 2 0 10 -8 17 -17z m-411 -53 c0 -5 -2 -10 -4 -10
-3 0 -8 5 -11 10 -3 6 -1 10 4 10 6 0 11 -4 11 -10z m390 -90 c12 -23 12 -24
-3 -11 -10 7 -17 20 -17 29 0 18 3 16 20 -18z m124 -16 c4 -10 1 -14 -6 -12
-15 5 -23 28 -10 28 5 0 13 -7 16 -16z m-545 -69 c-1 -15 -3 -13 -11 8 -6 16
-14 24 -21 20 -7 -4 -5 1 3 11 13 17 14 17 21 -1 4 -10 8 -27 8 -38z m-29 -15
c0 -5 -2 -10 -4 -10 -3 0 -8 5 -11 10 -3 6 -1 10 4 10 6 0 11 -4 11 -10z m550
-54 c0 -5 -13 3 -30 19 -16 16 -30 32 -30 37 0 4 14 -4 30 -19 17 -14 30 -31
30 -37z m-540 2 c0 -5 -4 -8 -10 -8 -5 0 -10 10 -10 23 0 18 2 19 10 7 5 -8
10 -18 10 -22z m-2306 -27 c-9 -18 -18 -30 -21 -27 -3 2 3 18 13 35 23 39 29
34 8 -8z m2936 -81 c6 -11 7 -20 2 -20 -10 0 -32 21 -32 32 0 16 19 8 30 -12z
m-590 -20 c0 -5 -5 -10 -11 -10 -5 0 -7 5 -4 10 3 6 8 10 11 10 2 0 4 -4 4
-10z m630 -47 c0 -13 -3 -13 -15 -3 -8 7 -15 19 -15 27 0 13 3 13 15 3 8 -7
15 -19 15 -27z m-30 -25 c0 -5 -2 -8 -5 -8 -9 0 -45 34 -45 43 0 10 49 -25 50
-35z m43 -51 c12 -13 31 -35 41 -50 10 -15 26 -27 35 -28 12 0 11 -2 -4 -8
-11 -5 -23 -7 -27 -4 -5 2 -8 -1 -8 -6 0 -6 5 -11 10 -11 6 0 10 -5 10 -12 0
-6 -10 -2 -23 10 -13 12 -29 22 -35 22 -7 0 -12 4 -12 9 0 5 11 8 25 6 14 -1
25 2 25 6 0 5 -6 9 -13 9 -8 0 -19 11 -25 25 -7 14 -19 28 -27 31 -8 4 -15 10
-15 15 0 16 21 9 43 -14z m-18 -37 c3 -6 -1 -7 -9 -4 -18 7 -21 14 -7 14 6 0
13 -4 16 -10z m-40 -50 c3 -5 2 -10 -4 -10 -5 0 -13 5 -16 10 -3 6 -2 10 4 10
5 0 13 -4 16 -10z m166 -27 c13 -16 12 -17 -3 -4 -17 13 -22 21 -14 21 2 0 10
-8 17 -17z m-67 -85 c25 -32 46 -62 46 -67 0 -5 7 -14 15 -21 9 -7 14 -15 12
-17 -3 -2 -15 5 -28 16 -30 25 -78 69 -65 59 6 -5 17 -8 26 -8 13 1 13 2 0 13
-21 17 -75 90 -63 86 6 -2 31 -30 57 -61z m-104 -40 c0 -13 -23 -5 -28 10 -2
7 2 10 12 6 9 -3 16 -11 16 -16z m25 -18 c3 -5 1 -10 -4 -10 -6 0 -11 5 -11
10 0 6 2 10 4 10 3 0 8 -4 11 -10z m115 -60 c0 -15 -5 -12 -26 11 -19 22 -19
22 4 10 12 -6 22 -16 22 -21z m-55 0 c3 -5 1 -10 -4 -10 -6 0 -11 5 -11 10 0
6 2 10 4 10 3 0 8 -4 11 -10z m30 -30 c3 -5 1 -10 -4 -10 -6 0 -11 5 -11 10 0
6 2 10 4 10 3 0 8 -4 11 -10z m-35 -15 c7 -9 8 -15 2 -15 -5 0 -12 7 -16 15
-3 8 -4 15 -2 15 2 0 9 -7 16 -15z m-3169 -32 c-12 -20 -14 -14 -5 12 4 9 9
14 11 11 3 -2 0 -13 -6 -23z m-54 -115 c-3 -8 -6 -5 -6 6 -1 11 2 17 5 13 3
-3 4 -12 1 -19z m3449 -59 c3 -6 -5 -3 -20 6 -14 10 -26 19 -26 22 0 7 39 -17
46 -28z m-57 -58 c12 -12 38 -29 56 -37 19 -7 36 -18 40 -24 10 -16 -2 -12
-57 18 -28 15 -64 34 -80 42 -16 9 -26 19 -22 23 12 11 39 2 63 -22z m42 1
c-7 -2 -18 1 -23 6 -8 8 -4 9 13 5 13 -4 18 -8 10 -11z m104 -92 c3 -5 2 -10
-4 -10 -5 0 -13 5 -16 10 -3 6 -2 10 4 10 5 0 13 -4 16 -10z m-1785 -20 c-20
-13 -40 -13 -40 0 0 6 12 10 28 10 21 0 24 -2 12 -10z m-1849 -43 c-10 -9 -11
-8 -5 6 3 10 9 15 12 12 3 -3 0 -11 -7 -18z m3513 -6 c11 -9 16 -10 12 -3 -10
17 4 15 40 -7 17 -10 45 -22 62 -26 18 -3 35 -11 38 -17 5 -7 0 -9 -14 -6 -13
4 -23 0 -26 -8 -4 -11 -10 -12 -31 -2 -14 6 -25 17 -25 25 0 8 -6 13 -12 12
-20 -2 -58 12 -58 22 0 5 -12 15 -27 24 -27 15 -27 16 -3 9 14 -3 34 -14 44
-23z m-1645 -87 c12 -15 21 -39 21 -55 l0 -28 -37 16 c-51 20 -73 42 -73 70 0
20 5 23 34 23 25 0 40 -7 55 -26z m205 -159 c33 -16 53 -27 101 -61 17 -11 39
-24 49 -27 10 -4 16 -10 13 -14 -4 -3 -1 -15 4 -26 14 -25 19 -67 8 -67 -5 0
-9 6 -9 13 0 7 -7 22 -16 33 -15 18 -15 18 -11 -9 4 -26 3 -27 -13 -12 -15 14
-18 14 -23 1 -3 -8 -1 -17 6 -20 8 -3 4 -11 -10 -24 -25 -22 -32 -79 -12 -99
17 -17 1 -35 -20 -24 -21 12 -52 81 -82 186 -12 44 -37 112 -56 152 -18 40
-33 76 -33 80 0 4 17 -10 37 -30 20 -21 50 -45 67 -52z m-221 13 c17 -14 95
-138 155 -246 24 -46 54 -80 103 -120 37 -30 73 -68 80 -84 26 -64 -12 -208
-42 -155 -6 9 -17 17 -25 17 -8 0 -25 7 -38 15 -12 8 -43 18 -68 21 -40 6 -52
3 -89 -23 -44 -29 -79 -33 -79 -9 0 8 -13 44 -29 82 -38 93 -53 155 -39 172 8
9 6 16 -7 26 -15 11 -18 30 -18 148 -1 99 3 141 12 152 16 19 61 21 84 4z
m924 -134 c7 -7 13 -19 13 -27 0 -18 24 -39 33 -30 7 6 8 -3 11 -74 1 -21 5
-43 9 -50 18 -28 -267 -89 -297 -64 -11 9 -15 9 -18 -1 -4 -10 -11 -11 -36 -2
-17 7 -32 8 -34 3 -2 -5 -22 9 -45 32 -25 24 -40 46 -36 55 3 9 -1 14 -12 14
-11 0 -15 5 -11 15 7 18 -10 20 -18 3 -3 -7 -4 -2 -1 13 3 17 -2 29 -15 39
-11 8 -20 20 -20 27 0 8 -7 10 -17 6 -10 -3 -15 -3 -12 1 16 17 48 14 54 -5 6
-18 9 -19 28 -6 19 13 28 13 70 0 31 -9 53 -11 60 -5 12 10 22 9 70 -3 21 -6
27 -4 27 9 0 11 9 16 30 16 20 0 30 5 30 15 0 8 5 16 10 16 6 1 14 2 20 3 5 0
14 6 20 12 13 13 70 6 87 -12z m-2827 -47 c0 -5 -4 -5 -10 -2 -5 3 -10 14 -10
23 0 15 2 15 10 2 5 -8 10 -19 10 -23z m745 -127 c10 -11 16 -20 13 -20 -3 0
-13 9 -23 20 -10 11 -16 20 -13 20 3 0 13 -9 23 -20z m-835 -64 c0 -3 -4 -8
-10 -11 -5 -3 -10 -1 -10 4 0 6 5 11 10 11 6 0 10 -2 10 -4z m3060 -7 c13 -9
13 -10 -2 -6 -24 8 -29 -3 -13 -27 8 -11 15 -30 15 -42 0 -15 6 -21 17 -20 10
0 18 -4 18 -11 0 -6 3 -15 8 -19 4 -4 7 -18 7 -30 0 -13 4 -25 9 -29 6 -3 4
-24 -4 -53 -18 -57 -18 -52 -2 -52 15 0 15 -1 22 -77 4 -45 3 -52 -11 -46 -13
5 -15 2 -9 -17 11 -36 -25 -200 -45 -200 -4 0 -11 -12 -15 -27 -4 -16 -15 -36
-26 -46 -10 -10 -19 -27 -19 -38 0 -18 -42 -45 -62 -41 -5 1 -8 -2 -8 -8 0 -5
-5 -10 -11 -10 -5 0 -7 5 -4 10 3 6 2 10 -3 10 -5 0 -17 -19 -28 -42 -13 -28
-25 -42 -34 -39 -34 8 -82 3 -90 -10 -12 -19 -4 -24 15 -9 9 7 15 8 15 2 0
-25 -14 -42 -34 -41 -11 0 -15 3 -8 6 10 4 10 9 -3 23 -9 10 -15 21 -14 26 3
12 -22 64 -31 64 -15 0 -26 46 -19 75 5 18 5 31 -1 33 -6 2 -10 10 -10 18 0 8
-4 14 -9 14 -5 0 -11 10 -13 23 -2 12 -9 23 -15 23 -7 1 -17 2 -23 3 -14 2
-12 38 3 44 7 3 5 6 -5 6 -9 1 -23 -7 -30 -16 -12 -17 -48 -28 -46 -14 2 18
-4 21 -22 11 -14 -8 -26 -8 -41 0 -17 10 -21 8 -26 -9 -7 -26 -80 -66 -97 -52
-6 5 -48 19 -93 30 -87 23 -130 25 -281 20 -25 -1 -49 4 -60 13 -9 8 -25 18
-34 21 -22 8 -23 33 -4 53 13 12 16 11 22 -8 10 -31 24 -43 60 -46 36 -3 53
13 64 62 6 27 4 36 -8 41 -8 3 -12 8 -9 11 3 3 7 4 10 2 2 -2 11 3 20 11 11 9
14 18 8 30 -12 22 4 61 26 62 69 4 91 10 143 38 33 16 72 30 87 30 15 0 40 2
55 6 20 5 38 1 63 -14 19 -11 35 -16 35 -11 0 18 34 -4 93 -62 56 -55 62 -59
84 -47 13 7 23 16 23 21 0 5 6 6 13 1 16 -10 57 -11 57 -1 0 4 -4 8 -9 8 -5 0
-13 9 -16 20 -3 11 -13 20 -21 20 -8 0 -12 5 -9 11 4 6 13 8 21 5 8 -3 14 -1
14 4 0 6 -5 10 -11 10 -5 0 -7 5 -4 10 3 6 2 10 -4 10 -7 0 -7 8 -1 25 8 20 6
27 -10 35 -23 12 -27 35 -5 26 8 -3 15 -1 15 4 0 6 -6 10 -14 10 -8 0 -18 5
-22 12 -5 8 0 9 14 6 22 -6 30 6 12 17 -5 3 -8 19 -6 35 2 16 -2 31 -8 33 -25
9 7 19 95 28 107 11 206 30 234 47 25 14 46 15 65 1z m-3008 -94 c-17 -35 -32
-45 -32 -22 -1 11 -30 -49 -30 -61 0 -3 11 5 25 18 24 23 25 23 25 3 0 -19
-18 -40 -49 -58 -11 -7 -13 1 -9 40 5 39 13 54 44 81 21 19 39 34 41 34 1 0
-5 -16 -15 -35z m163 -145 c3 -6 2 -10 -3 -10 -5 0 -14 10 -20 23 -9 19 -10
16 -9 -22 2 -43 1 -44 -30 -48 -37 -5 -42 8 -15 35 30 33 55 86 42 90 -9 3 -9
7 1 13 11 6 16 -1 21 -31 4 -22 10 -45 13 -50z m-253 8 c-10 -10 -10 -8 -2 37
1 6 4 2 7 -9 3 -10 0 -23 -5 -28z m3825 -115 c3 -13 9 -23 13 -23 4 0 10 -18
14 -40 3 -22 11 -40 17 -40 8 0 10 -14 6 -42 -5 -37 -4 -41 8 -25 12 16 14 15
24 -14 6 -17 9 -35 6 -39 -2 -4 4 -18 15 -30 11 -13 21 -30 22 -39 3 -32 4
-36 12 -49 13 -21 -1 -25 -19 -5 -41 45 -75 97 -75 114 0 10 -5 21 -12 25 -7
5 -8 3 -3 -6 5 -8 4 -11 -3 -6 -6 3 -13 19 -17 35 -3 16 -13 32 -21 35 -11 4
-14 24 -13 88 0 46 -2 92 -6 103 l-7 20 17 -20 c9 -11 18 -30 22 -42z m-3627
2 c-16 -19 -30 -19 -30 -1 0 8 8 16 18 18 24 6 27 1 12 -17z m-43 -7 c-3 -8
-6 -5 -6 6 -1 11 2 17 5 13 3 -3 4 -12 1 -19z m-46 -21 c-8 -8 -11 -7 -11 4 0
20 13 34 18 19 3 -7 -1 -17 -7 -23z m-72 -10 c-5 -16 -7 -33 -4 -36 8 -13 -12
-32 -27 -26 -13 5 -14 13 -6 43 13 47 14 49 31 49 11 0 13 -7 6 -30z m2701 13
c0 -5 -2 -10 -4 -10 -3 0 -8 5 -11 10 -3 6 -1 10 4 10 6 0 11 -4 11 -10z
m1037 -37 c-3 -10 -5 -4 -5 12 0 17 2 24 5 18 2 -7 2 -21 0 -30z m-3764 -83
c-5 -20 -21 -36 -28 -28 -5 4 23 48 30 48 2 0 1 -9 -2 -20z m3827 -132 c0 -14
-59 52 -60 66 0 5 14 -5 30 -22 17 -18 30 -37 30 -44z m-1305 22 c3 -5 1 -10
-4 -10 -6 0 -11 5 -11 10 0 6 2 10 4 10 3 0 8 -4 11 -10z m1288 -124 c-3 -6
-2 -8 2 -3 13 11 45 -24 45 -50 0 -26 -25 -32 -34 -7 -3 8 -10 13 -15 9 -5 -3
-13 0 -17 6 -4 8 -3 9 4 5 7 -4 12 -1 12 8 0 8 -4 16 -8 18 -5 2 -12 18 -15
37 l-7 34 20 -23 c11 -12 17 -28 13 -34z m-1546 -5 c5 -20 44 -37 40 -18 -1 6
3 12 8 12 6 1 28 7 50 13 36 11 41 10 55 -9 9 -11 23 -21 30 -23 19 -3 60 -29
60 -37 0 -4 15 -23 34 -44 29 -32 35 -34 39 -18 3 10 4 1 2 -19 -3 -45 13 -61
58 -61 18 0 24 -2 15 -4 -19 -5 -25 -23 -7 -23 6 0 9 -6 7 -12 -3 -7 -10 -13
-15 -13 -21 0 -22 -10 -2 -35 l19 -25 6 23 c4 13 11 21 17 19 21 -7 17 -24 -8
-37 -14 -7 -25 -18 -25 -24 0 -6 -5 -18 -10 -26 -9 -13 -11 -13 -21 0 -8 12
-9 10 -4 -7 5 -18 2 -23 -11 -23 -13 0 -15 -3 -7 -11 8 -8 -3 -24 -40 -57 -27
-26 -59 -55 -70 -66 -15 -15 -24 -16 -42 -8 -17 8 -25 8 -27 0 -2 -6 -13 -8
-27 -3 -18 6 -21 9 -10 16 14 9 6 11 -47 13 -12 1 -34 17 -50 36 -16 19 -34
39 -41 43 -7 4 -13 15 -13 23 0 11 -4 12 -19 4 -24 -12 -31 -13 -31 -1 0 5 8
12 18 14 13 4 11 5 -5 6 -13 0 -23 5 -23 10 0 12 48 23 63 14 24 -15 45 -12
70 11 17 16 34 22 47 19 17 -5 20 -1 17 24 -2 16 -6 34 -10 40 -4 6 -4 18 -1
27 4 11 -2 17 -21 22 -17 4 -32 19 -44 43 -9 20 -21 35 -27 35 -94 -16 -135
-10 -119 15 8 14 -13 43 -26 35 -5 -3 -9 0 -9 5 0 14 -37 14 -42 1 -1 -5 -8
-6 -15 -2 -15 9 -21 36 -8 37 14 2 42 13 90 35 82 37 124 40 132 11z m-247
-52 c0 -11 -4 -18 -10 -14 -5 3 -7 12 -3 20 7 21 13 19 13 -6z m-62 -19 c-2
-6 -11 -4 -23 5 -11 9 -15 14 -8 11 6 -4 15 -1 19 6 6 9 9 9 12 0 2 -7 2 -17
0 -22z m2055 4 c8 -8 -3 -34 -14 -34 -5 0 -9 6 -9 14 0 8 -6 17 -12 19 -7 3
-4 6 8 6 11 1 23 -2 27 -5z m-4006 -45 c-3 -26 1 -45 9 -54 8 -7 14 -23 14
-35 0 -12 5 -31 11 -43 9 -16 9 -22 0 -25 -6 -2 -11 -11 -11 -19 0 -13 3 -13
15 -3 12 10 16 8 25 -15 6 -15 8 -30 5 -33 -2 -3 -8 6 -13 18 -13 34 -21 11
-10 -29 7 -26 12 -31 18 -21 5 8 12 11 16 7 11 -10 7 -108 -5 -120 -13 -13
-31 0 -31 22 0 9 -5 22 -12 29 -7 7 -9 12 -5 12 4 0 -3 17 -16 38 -50 81 -63
195 -30 272 10 22 19 40 21 40 2 0 1 -18 -1 -41z m3783 -14 c0 -5 -5 -3 -10 5
-5 8 -10 20 -10 25 0 6 5 3 10 -5 5 -8 10 -19 10 -25z m-1030 -69 c0 -3 -4 -8
-10 -11 -5 -3 -10 -1 -10 4 0 6 5 11 10 11 6 0 10 -2 10 -4z m1298 -25 c18
-30 1 -52 -26 -33 -9 7 -25 15 -35 19 -16 5 -16 7 -2 23 21 24 47 20 63 -9z
m-4069 -158 c1 -12 6 -23 11 -25 7 -2 8 -17 2 -43 l-9 -40 -12 45 c-17 58 -22
65 -32 49 -7 -12 -9 -12 -9 -1 0 8 9 16 21 19 14 4 17 8 9 13 -7 4 -14 29 -16
56 l-4 49 19 -50 c11 -27 20 -60 20 -72z m2326 67 c3 -5 -1 -10 -9 -10 -8 0
-18 5 -21 10 -3 6 1 10 9 10 8 0 18 -4 21 -10z m1558 -17 c-7 -2 -21 -2 -30 0
-10 3 -4 5 12 5 17 0 24 -2 18 -5z m182 -13 c3 -5 2 -10 -4 -10 -5 0 -13 5
-16 10 -3 6 -2 10 4 10 5 0 13 -4 16 -10z m-180 -10 c3 -5 -1 -10 -10 -10 -9
0 -13 5 -10 10 3 6 8 10 10 10 2 0 7 -4 10 -10z m-3837 -130 c9 -24 9 -44 -3
-52 -18 -13 -25 -9 -25 18 0 17 4 23 13 18 9 -5 9 -4 1 5 -7 7 -9 22 -6 34 4
15 7 17 10 7 2 -8 6 -22 10 -30z m3752 0 c-12 -8 -10 -10 10 -10 25 -1 25 -1
5 -16 -19 -16 -19 -16 5 -9 23 7 24 6 9 -9 -16 -17 -49 -13 -49 6 0 5 -4 7 -8
4 -4 -2 -14 -1 -21 4 -10 6 -7 12 15 24 32 17 58 22 34 6z m288 -163 c2 -10
-3 -17 -12 -17 -8 0 -19 -7 -24 -15 -4 -9 -24 -24 -43 -34 -18 -10 -38 -28
-44 -39 -5 -12 -13 -22 -17 -22 -12 0 -9 14 7 36 8 10 14 26 15 34 0 13 -1 13
-10 0 -8 -12 -10 -11 -9 5 1 11 5 31 10 45 l9 25 -4 -27 c-4 -34 29 -72 40
-44 3 9 10 14 14 11 5 -3 12 5 16 17 14 47 45 62 52 25z m-251 -32 c-14 -29
-23 -31 -43 -11 -12 13 -12 16 3 25 10 6 25 11 35 11 14 0 14 -4 5 -25z m43
-5 c0 -5 -5 -10 -11 -10 -5 0 -7 5 -4 10 3 6 8 10 11 10 2 0 4 -4 4 -10z"/>
<path d="M2876 3543 c8 -32 24 -55 24 -32 0 26 -12 59 -21 59 -5 0 -6 -12 -3
-27z"/>
<path d="M2970 1760 c0 -5 5 -10 11 -10 5 0 7 5 4 10 -3 6 -8 10 -11 10 -2 0
-4 -4 -4 -10z"/>
<path d="M2900 1730 c0 -5 5 -10 11 -10 5 0 7 5 4 10 -3 6 -8 10 -11 10 -2 0
-4 -4 -4 -10z"/>
<path d="M2830 1430 c0 -5 5 -10 10 -10 6 0 10 5 10 10 0 6 -4 10 -10 10 -5 0
-10 -4 -10 -10z"/>
<path d="M2784 1169 c-2 -4 4 -12 14 -18 14 -7 18 -6 19 8 1 18 -23 25 -33 10z"/>
<path d="M2820 1111 c0 -12 9 -20 25 -23 30 -6 32 3 7 25 -24 22 -32 21 -32
-2z"/>
<path d="M2662 1045 c-11 -12 -10 -15 3 -15 8 0 15 7 15 15 0 18 -2 18 -18 0z"/>
<path d="M3090 910 c0 -5 5 -10 10 -10 6 0 10 5 10 10 0 6 -4 10 -10 10 -5 0
-10 -4 -10 -10z"/>
<path d="M2840 840 c0 -5 5 -10 11 -10 5 0 7 5 4 10 -3 6 -8 10 -11 10 -2 0
-4 -4 -4 -10z"/>
<path d="M2260 760 c0 -13 5 -20 13 -17 6 2 12 10 12 17 0 7 -6 15 -12 18 -8
2 -13 -5 -13 -18z"/>
<path d="M2350 464 c0 -8 5 -12 10 -9 6 4 8 11 5 16 -9 14 -15 11 -15 -7z"/>
<path d="M167 433 c-4 -3 -7 -11 -7 -17 0 -6 5 -5 12 2 6 6 9 14 7 17 -3 3 -9
2 -12 -2z"/>
<path d="M3200 3741 c0 -5 5 -13 10 -16 6 -3 10 -2 10 4 0 5 -4 13 -10 16 -5
3 -10 2 -10 -4z"/>
<path d="M190 2110 c0 -5 5 -10 10 -10 6 0 10 5 10 10 0 6 -4 10 -10 10 -5 0
-10 -4 -10 -10z"/>
<path d="M4115 1599 c-4 -6 -5 -12 -2 -15 2 -3 7 2 10 11 7 17 1 20 -8 4z"/>
<path d="M4085 1560 c-3 -5 -1 -10 4 -10 6 0 11 5 11 10 0 6 -2 10 -4 10 -3 0
-8 -4 -11 -10z"/>
<path d="M4020 1490 c-9 -6 -10 -10 -3 -10 6 0 15 5 18 10 8 12 4 12 -15 0z"/>
<path d="M10 649 c0 -5 5 -7 10 -4 6 3 10 8 10 11 0 2 -4 4 -10 4 -5 0 -10 -5
-10 -11z"/>
<path d="M4170 536 c0 -2 8 -10 18 -17 15 -13 16 -12 3 4 -13 16 -21 21 -21
13z"/>
</g>
</svg>
