<?xml version="1.0" standalone="no"?>
<!DOCTYPE svg PUBLIC "-//W3C//DTD SVG 20010904//EN"
 "http://www.w3.org/TR/2001/REC-SVG-20010904/DTD/svg10.dtd">
<svg version="1.0" xmlns="http://www.w3.org/2000/svg"
 width="1000.000000pt" height="1000.000000pt" viewBox="0 0 1000.000000 1000.000000"
 preserveAspectRatio="xMidYMid meet">
<metadata>
Created by potrace 1.14, written by Peter Selinger 2001-2017
</metadata>
<g transform="translate(0.000000,1000.000000) scale(0.100000,-0.100000)"
fill="#000000" stroke="none">
<path d="M3856 9455 c4 -9 -2 -18 -17 -24 -13 -5 -19 -10 -12 -10 6 -1 19 -4
28 -7 12 -5 16 -2 13 12 -2 13 3 19 17 20 11 1 22 3 25 4 3 1 15 3 27 4 50 6
33 16 -25 16 -50 0 -60 -3 -56 -15z"/>
<path d="M3989 9461 c11 -7 10 -10 -5 -14 -16 -4 -16 -5 -2 -6 24 -1 20 -61
-4 -61 -9 0 -20 5 -23 10 -5 8 -12 7 -22 -2 -8 -7 -32 -11 -52 -10 -27 2 -32
0 -21 -8 17 -11 -39 -3 -75 11 -19 7 -19 8 3 8 25 1 30 16 7 25 -9 3 -12 12
-9 23 5 16 4 16 -8 2 -7 -9 -28 -16 -46 -17 -17 0 -41 -4 -52 -7 -11 -3 -20
-2 -20 3 0 5 -6 9 -12 10 -7 1 -29 4 -48 7 l-35 6 30 -16 30 -15 -35 6 c-101
17 -231 -9 -295 -60 -19 -16 -34 -30 -32 -32 2 -2 31 10 64 27 85 44 200 69
236 51 12 -5 54 -15 92 -22 39 -7 75 -17 82 -22 7 -5 17 -7 23 -3 5 3 10 1 10
-6 0 -8 -15 -10 -52 -6 -43 5 -47 4 -23 -4 17 -5 38 -11 47 -12 24 -4 35 -17
14 -17 -9 0 -26 -9 -38 -20 l-22 -20 28 0 c15 0 25 4 21 10 -7 11 47 14 58 4
14 -14 -15 -44 -43 -44 -15 0 -56 -7 -89 -16 -34 -8 -66 -12 -71 -9 -6 4 -17
2 -25 -5 -7 -6 -38 -12 -68 -14 -45 -3 -54 0 -50 11 5 12 2 13 -13 5 -36 -19
-69 -30 -84 -30 -8 0 -23 -3 -32 -7 -21 -8 -25 14 -6 33 6 6 9 15 5 18 -3 4
-20 -8 -37 -25 -21 -21 -41 -31 -61 -31 -17 0 -28 -4 -24 -9 7 -12 -26 -31
-55 -31 -16 0 -20 4 -15 19 5 15 1 18 -21 13 -25 -4 -25 -3 -14 18 7 14 -4 6
-27 -18 -31 -33 -47 -42 -74 -43 -19 0 -43 -5 -54 -10 -14 -6 -1 -7 40 -3 53
5 58 4 46 -10 -7 -9 -11 -16 -9 -16 10 0 48 38 48 48 0 5 7 13 16 16 23 9 27
8 21 -8 -4 -9 2 -17 14 -21 10 -4 19 -11 19 -16 0 -12 -17 -12 -22 0 -1 5 -21
1 -43 -9 -22 -11 -47 -20 -55 -20 -8 0 -28 -9 -44 -19 -27 -18 -31 -18 -41 -4
-9 11 -14 13 -19 5 -4 -7 -1 -12 6 -12 7 0 -6 -10 -29 -22 -23 -12 -41 -26
-40 -31 1 -5 -4 -12 -12 -15 -8 -3 -11 0 -7 6 4 6 -17 -1 -47 -16 -29 -15 -48
-30 -43 -34 6 -4 14 -2 18 5 6 9 8 9 8 0 0 -6 -7 -18 -15 -27 -8 -8 -15 -19
-15 -25 0 -6 -3 -10 -7 -9 -13 3 -93 -25 -93 -32 0 -4 -7 -7 -15 -7 -23 0 -18
13 11 26 17 7 24 17 20 26 -3 10 1 15 11 15 12 0 14 3 6 11 -8 8 -16 8 -30 0
-10 -6 -14 -11 -9 -11 11 0 -39 -46 -79 -71 -22 -14 -25 -19 -12 -19 14 0 10
-8 -17 -35 -20 -19 -38 -35 -42 -35 -14 0 -134 -63 -134 -71 0 -4 -17 -13 -37
-20 -47 -15 -146 -68 -242 -131 -41 -26 -75 -48 -76 -48 -2 0 -18 -15 -37 -32
-19 -18 -64 -62 -101 -97 -37 -35 -67 -67 -67 -72 0 -4 -18 -29 -40 -54 -22
-25 -40 -54 -40 -64 0 -10 -11 -35 -25 -55 -14 -20 -25 -40 -25 -45 0 -4 -8
-25 -19 -47 -62 -130 -75 -163 -92 -232 -11 -41 -26 -89 -34 -105 -8 -16 -12
-33 -9 -38 7 -13 -17 -128 -29 -136 -6 -4 -8 9 -4 36 l5 41 -19 -24 c-10 -13
-19 -37 -18 -53 0 -15 3 -22 6 -15 3 9 9 10 17 3 10 -8 10 -23 2 -61 -5 -27
-14 -50 -19 -50 -4 0 -5 6 -2 13 4 6 -1 3 -9 -8 -16 -18 -16 -18 -10 15 3 19
8 42 10 50 2 8 -5 4 -16 -10 -11 -14 -20 -36 -21 -50 -1 -17 -3 -19 -6 -8 -3
14 -8 15 -22 6 -11 -7 -16 -19 -13 -30 5 -20 17 -24 27 -8 8 12 43 -23 46 -47
4 -28 -12 -85 -29 -102 -13 -13 -14 -13 -8 6 6 18 3 22 -14 20 -11 -1 -20 -5
-20 -9 0 -4 -15 -8 -32 -8 l-33 0 22 18 c15 11 20 21 14 31 -7 10 -11 9 -22
-5 -12 -16 -28 -19 -96 -20 -81 0 -109 -8 -86 -22 7 -4 17 -20 23 -36 15 -40
0 -52 -64 -49 -48 2 -54 0 -75 -27 -12 -17 -28 -30 -35 -30 -17 0 -27 -25 -19
-46 5 -14 3 -14 -16 -3 -11 8 -21 19 -21 26 0 20 -15 23 -61 14 -24 -5 -36 -9
-26 -10 16 -1 16 -4 -5 -31 -12 -16 -29 -32 -39 -35 -26 -9 -84 -68 -71 -73
21 -7 13 -22 -12 -22 -18 0 -26 -7 -31 -27 -11 -42 -15 -133 -6 -133 4 0 13
-11 19 -24 12 -27 0 -45 -33 -47 -13 -1 -10 -4 10 -8 41 -9 38 -33 -5 -42 -18
-4 -39 -14 -46 -23 -6 -9 -21 -16 -33 -16 -18 0 -21 -6 -21 -44 0 -46 10 -56
53 -56 25 0 58 -57 39 -69 -6 -3 -10 -17 -11 -31 -1 -53 -14 -115 -28 -136
-12 -19 -12 -24 4 -39 11 -12 18 -14 21 -6 2 6 8 9 13 5 16 -10 10 -24 -11
-24 -20 0 -27 -14 -11 -24 14 -9 20 -56 7 -56 -6 0 -3 -6 6 -14 14 -11 16 -19
7 -49 -7 -26 -16 -37 -28 -37 -16 0 -32 -27 -35 -63 -1 -4 -7 -12 -15 -16 -11
-7 -9 -11 9 -21 l23 -13 -24 -13 c-18 -10 -20 -13 -7 -14 20 0 50 -39 41 -54
-9 -14 -4 -99 6 -106 17 -10 24 -72 10 -82 -11 -7 -11 -11 -1 -15 6 -2 12 -11
12 -19 0 -8 5 -14 11 -14 6 0 9 -9 6 -20 -3 -11 0 -20 6 -20 7 0 6 -4 -3 -9
-8 -6 -17 -8 -21 -6 -11 8 -39 -30 -45 -63 -6 -32 -6 -32 20 -22 24 9 26 7 26
-15 0 -14 -4 -25 -8 -25 -4 0 -9 -19 -11 -42 -1 -23 -4 -45 -7 -49 -2 -4 0
-10 6 -14 6 -4 5 -13 -2 -25 -9 -14 -9 -22 0 -32 13 -16 -2 -88 -18 -88 -6 0
-10 -5 -10 -12 0 -9 3 -9 12 0 17 17 28 15 28 -7 0 -10 7 -24 15 -31 16 -13
17 -130 1 -141 -5 -4 -5 -13 0 -20 12 -19 12 -33 -1 -42 -6 -5 -3 -11 9 -18
15 -9 16 -13 5 -21 -11 -7 -11 -11 -2 -15 9 -3 10 -10 3 -24 -6 -11 -10 -27
-8 -36 2 -10 -8 -22 -22 -30 -16 -8 -19 -13 -9 -13 13 0 18 -14 23 -60 6 -54
10 -62 34 -72 21 -9 23 -12 10 -15 -21 -5 -21 -8 -8 -34 6 -10 18 -19 28 -19
14 0 15 -2 2 -10 -16 -10 -16 -98 0 -114 6 -6 2 -14 -8 -22 -15 -11 -15 -13
-1 -19 12 -5 15 -18 13 -58 -3 -42 -2 -46 5 -22 9 30 9 30 10 4 0 -15 -6 -32
-14 -39 -10 -8 -12 -17 -6 -24 6 -7 9 -21 9 -31 -2 -32 12 -95 21 -95 5 0 11
-15 13 -32 3 -18 8 -40 12 -50 5 -12 3 -16 -11 -15 -11 1 -17 -3 -14 -13 2 -8
4 -22 5 -31 0 -9 5 -15 11 -13 6 3 9 -14 7 -46 -3 -36 1 -58 14 -78 l18 -27 6
25 c6 24 7 24 11 -6 3 -18 0 -35 -8 -43 -8 -7 -13 -8 -13 -1 0 13 -27 13 -35
-1 -4 -5 0 -18 9 -28 21 -23 20 -30 -4 -24 -11 3 -20 0 -20 -6 0 -6 7 -11 15
-11 8 0 17 -12 20 -28 3 -15 13 -40 22 -57 16 -29 25 -74 39 -182 4 -29 10
-53 13 -53 4 0 8 -53 9 -117 2 -86 -1 -119 -10 -125 -10 -6 -9 -8 4 -8 9 0 20
5 23 10 3 6 12 10 18 9 9 0 9 -2 0 -6 -7 -2 -13 -11 -13 -19 0 -8 -8 -14 -17
-14 -16 -1 -16 -2 2 -16 16 -12 17 -16 6 -23 -11 -7 -11 -9 0 -14 11 -5 10 -8
-3 -17 -12 -7 -18 -24 -18 -50 0 -22 -4 -40 -10 -40 -5 0 -10 -4 -10 -10 0 -5
11 -10 25 -10 14 0 25 -4 25 -10 0 -5 -7 -10 -15 -10 -18 0 -18 -2 -3 -52 7
-23 14 -34 19 -27 15 25 27 -1 18 -42 -5 -22 -7 -44 -4 -49 3 -5 0 -18 -7 -29
-9 -16 -9 -23 3 -37 11 -13 11 -18 2 -21 -20 -7 -15 -23 7 -23 21 0 29 -20 8
-20 -8 -1 -5 -6 6 -15 10 -7 16 -20 13 -27 -4 -10 -6 -10 -6 0 -1 6 -12 12
-25 12 -23 0 -24 -2 -14 -33 6 -17 17 -47 24 -65 8 -18 14 -39 14 -47 0 -8 7
-15 16 -15 13 0 15 -7 9 -37 -4 -21 -12 -41 -18 -45 -7 -5 -3 -8 11 -8 34 0
26 -24 -15 -44 -26 -13 -38 -14 -43 -6 -6 9 -9 9 -15 0 -4 -7 -2 -16 5 -20 9
-6 4 -9 -16 -12 -42 -5 -46 -38 -5 -38 17 0 31 -4 31 -10 0 -5 -9 -10 -20 -10
-12 0 -17 -5 -14 -13 2 -7 -9 -28 -25 -46 -23 -25 -36 -32 -54 -29 -22 4 -25
1 -30 -36 -3 -22 -11 -42 -16 -44 -6 -2 -11 -8 -11 -13 0 -4 7 -6 15 -3 8 4
15 1 15 -5 0 -6 -4 -11 -10 -11 -12 0 -14 -26 -3 -33 5 -2 3 -2 -4 -1 -6 2
-14 -4 -17 -12 -3 -8 -1 -14 4 -14 19 0 10 -38 -10 -43 -21 -5 -28 -27 -9 -27
8 0 8 -4 0 -14 -9 -10 -8 -16 4 -26 21 -17 9 -30 -28 -30 -24 0 -28 -3 -19
-12 19 -19 14 -44 -14 -75 -17 -19 -27 -24 -31 -15 -8 21 -21 13 -28 -16 -3
-15 -16 -32 -28 -37 -12 -6 -24 -19 -26 -30 -4 -25 -47 -65 -69 -65 -10 0 -23
-9 -30 -20 -9 -15 -23 -20 -57 -20 -39 0 -45 -3 -45 -21 0 -11 -5 -17 -10 -14
-18 11 -50 -6 -50 -26 0 -10 -5 -19 -11 -19 -14 0 -7 -42 7 -47 7 -2 10 6 7
22 -5 22 -2 25 21 25 14 0 35 -8 46 -18 l21 -17 -23 -6 c-17 -4 -23 -12 -23
-31 0 -15 -6 -33 -12 -39 -11 -11 -13 -9 -13 9 0 29 -34 29 -54 0 -14 -20 -14
-23 -1 -31 21 -11 19 -27 -4 -27 -23 0 -45 -26 -46 -54 0 -14 -7 -22 -24 -24
-13 -2 -26 -12 -28 -23 -3 -10 -9 -19 -14 -19 -5 0 -9 -7 -9 -15 0 -8 -4 -15
-10 -15 -5 0 -10 7 -10 16 0 8 -5 12 -10 9 -6 -4 -8 -15 -5 -26 5 -16 1 -19
-29 -19 -20 0 -36 -4 -36 -10 0 -5 6 -10 14 -10 8 0 17 -7 20 -16 9 -23 8 -24
-14 -24 -20 0 -20 -7 -20 -505 l0 -505 2567 0 c1971 0 2564 3 2555 12 -23 23
-12 31 11 10 24 -23 47 -29 47 -13 0 5 -6 12 -12 14 -23 10 12 25 44 20 20 -3
28 -1 23 6 -3 6 -12 11 -19 11 -22 0 -36 22 -25 42 6 12 6 18 -1 18 -5 0 -10
4 -10 10 0 17 28 -1 33 -21 6 -23 47 -26 47 -4 0 8 -4 15 -10 15 -5 0 -10 -5
-10 -11 0 -5 -5 -7 -11 -3 -7 4 -7 9 -2 13 5 3 12 14 16 23 4 12 12 15 23 11
14 -5 16 -2 10 20 -4 17 -2 27 5 27 6 0 9 7 5 15 -3 10 1 15 13 15 28 0 52 11
46 20 -3 5 4 11 15 15 11 3 20 10 20 15 0 5 -7 7 -15 4 -8 -4 -22 -1 -30 6 -8
6 -19 9 -25 5 -13 -8 -13 15 0 35 8 13 10 13 10 -1 0 -18 37 -32 46 -18 3 5 2
9 -3 8 -17 -3 -33 1 -33 9 0 5 13 9 30 10 16 0 35 4 41 7 14 9 -41 44 -59 37
-11 -4 -11 -6 0 -13 19 -12 0 -11 -38 3 -26 9 -36 9 -49 -2 -9 -8 -35 -15 -57
-16 -46 -3 -82 24 -71 53 5 17 5 17 -13 0 -18 -17 -18 -19 -1 -28 9 -6 15 -14
12 -20 -8 -12 -55 20 -55 37 0 8 -4 14 -10 14 -5 0 -10 7 -10 16 0 8 4 13 9 9
19 -11 23 17 5 36 -17 18 -16 19 24 19 23 0 42 4 42 10 0 14 63 -1 78 -19 8
-9 11 -11 8 -5 -7 15 20 38 34 29 5 -3 10 -1 10 4 0 6 -5 11 -11 11 -5 0 -7 5
-4 10 4 6 15 8 25 5 10 -3 27 -2 37 4 10 5 41 16 68 24 187 57 311 114 410
192 10 8 23 15 27 15 8 0 66 38 78 50 3 3 42 34 88 69 77 60 96 81 71 81 -5 0
-7 -4 -4 -10 6 -9 1 -11 -33 -14 -7 -1 -17 -7 -21 -15 -6 -10 -13 -10 -29 -2
-18 9 -19 8 -14 -11 4 -18 2 -20 -20 -15 -30 8 -42 -1 -27 -20 9 -10 7 -13 -9
-13 -12 0 -25 7 -30 15 -12 23 -35 10 -77 -41 -20 -24 -43 -44 -52 -44 -12 0
-13 3 -4 13 15 18 2 30 -17 15 -11 -10 -17 -9 -27 5 -15 21 -35 22 -35 1 0
-13 -8 -15 -40 -11 -34 4 -40 2 -40 -14 0 -28 -19 -23 -30 7 -9 22 -13 24 -25
14 -9 -8 -13 -21 -10 -31 4 -11 2 -19 -5 -19 -6 0 -9 4 -6 8 7 11 -41 38 -51
29 -3 -4 0 -15 8 -24 39 -49 52 -100 23 -89 -9 3 -18 6 -21 6 -3 0 0 7 7 15
22 26 -14 42 -48 21 -7 -4 -12 -2 -12 6 -1 8 -6 6 -15 -6 -8 -10 -12 -22 -10
-26 7 -12 -95 -2 -111 11 -8 6 -14 18 -14 26 0 8 -5 11 -10 8 -6 -3 -10 -2
-10 4 0 5 4 12 9 15 14 9 41 -4 41 -19 0 -8 5 -17 12 -21 8 -5 9 -2 4 12 -4
10 -9 24 -10 29 -4 24 -19 35 -37 30 -10 -4 -19 -2 -19 3 0 6 -13 24 -29 41
-26 28 -30 40 -31 94 -1 34 2 72 5 83 9 29 -10 39 -27 16 -20 -28 -55 -45 -61
-29 -3 7 -6 5 -6 -5 -1 -19 -21 -26 -21 -8 0 6 -10 10 -22 10 -13 0 -18 4 -13
8 13 9 18 92 6 92 -5 0 -12 8 -14 17 -3 12 -5 10 -6 -7 -1 -18 -4 -21 -10 -11
-7 10 -12 8 -25 -10 l-17 -24 7 30 c6 25 5 28 -7 19 -8 -6 -27 -14 -43 -18
-28 -7 -28 -6 -24 29 2 19 0 35 -4 35 -4 0 -8 -6 -8 -14 0 -8 -13 -28 -29 -44
-20 -22 -34 -29 -50 -25 -15 4 -21 1 -21 -11 0 -19 -20 -22 -21 -3 -2 27 2 93
7 121 5 21 3 27 -7 24 -8 -3 -13 -15 -11 -26 2 -12 -1 -22 -7 -22 -5 0 -11 10
-13 22 -2 14 -12 24 -28 28 -14 3 -26 14 -28 23 -4 19 13 23 24 5 5 -8 11 -6
20 7 12 16 16 16 31 4 16 -13 17 -12 5 3 -15 19 -7 61 14 79 11 9 18 8 31 -2
15 -13 16 -11 10 13 -5 17 -3 28 6 31 9 4 8 8 -3 16 -9 6 -16 7 -18 1 -2 -6
-8 -10 -13 -10 -5 0 -6 20 -3 45 3 29 1 45 -6 45 -6 0 -8 -4 -5 -10 3 -5 2
-10 -3 -10 -13 0 -34 59 -25 72 3 6 12 0 19 -13 10 -19 13 -20 14 -7 0 12 7
17 23 15 32 -3 28 25 -5 41 -16 7 -28 20 -28 29 0 15 2 15 18 0 14 -13 19 -13
30 -1 6 7 12 22 12 33 0 10 7 22 16 25 10 4 14 12 10 22 -5 13 -1 15 24 12 24
-4 30 -1 25 9 -3 8 -5 17 -5 19 0 3 -4 3 -9 0 -5 -3 -11 1 -15 9 -8 21 15 31
29 12 7 -10 15 -17 19 -17 12 0 6 21 -13 42 -11 11 -17 26 -15 33 6 15 -25 55
-43 55 -18 0 -33 33 -22 51 15 23 11 29 -21 29 -16 0 -30 4 -30 10 0 5 21 9
46 7 45 -2 48 0 69 38 13 22 28 40 34 40 7 0 16 7 21 15 10 16 11 15 29 -15 7
-13 11 -15 10 -5 -3 30 1 40 18 40 13 0 14 3 5 12 -17 17 -14 60 6 84 20 23
72 44 113 44 15 0 40 5 56 12 15 6 30 12 33 12 3 1 10 4 15 8 15 9 95 30 134
35 18 2 64 20 102 39 51 26 83 36 121 37 29 1 59 7 66 14 16 15 16 26 0 17 -7
-5 -26 -7 -43 -6 -16 1 -66 -2 -110 -8 -44 -6 -114 -12 -155 -14 -41 -1 -83
-6 -92 -11 -11 -4 -18 -3 -18 4 0 7 -13 9 -35 6 -19 -2 -35 0 -35 5 0 6 5 10
12 10 8 0 7 6 -4 16 -14 15 -18 15 -41 -1 -15 -9 -27 -28 -29 -43 -2 -21 -10
-28 -36 -33 -19 -4 -39 -12 -44 -17 -7 -7 -19 -7 -34 -1 -31 11 -91 72 -76 77
6 2 8 10 5 18 -3 9 1 14 11 14 9 0 21 12 27 27 8 21 7 28 -6 36 -15 8 -15 10
1 28 9 10 21 16 26 13 5 -3 21 7 35 23 15 15 31 28 35 28 9 0 28 25 28 37 0 4
-9 10 -20 13 -11 3 -20 11 -20 16 0 5 -9 22 -20 37 -23 31 -18 61 9 63 13 0
13 2 1 6 -17 7 -55 42 -49 45 49 30 67 36 77 26 14 -14 52 25 52 54 0 10 5 18
11 18 5 0 7 5 4 10 -10 16 -32 11 -63 -15 -31 -26 -42 -24 -42 7 0 12 -12 24
-31 32 -19 8 -26 15 -19 18 17 5 -23 48 -45 48 -7 0 -19 8 -24 18 -6 9 -11 11
-11 5 0 -21 -20 -15 -20 6 0 11 -22 43 -50 72 -30 31 -50 61 -50 75 0 12 -5
24 -12 26 -7 3 -13 25 -14 50 -1 26 -5 51 -8 57 -4 6 -3 19 2 28 14 27 22 122
11 128 -13 9 -11 85 2 85 7 0 9 12 5 33 -7 37 1 52 20 36 18 -15 27 6 10 24
-8 8 -12 17 -9 21 3 3 0 12 -7 21 -8 10 -9 19 -3 27 19 25 33 105 30 181 -1
56 1 77 11 77 16 0 15 17 -2 27 -18 11 -26 83 -9 83 18 0 16 20 -4 42 -15 17
-15 18 0 18 12 0 17 9 18 28 0 15 2 61 4 102 1 41 -1 95 -5 120 -5 25 -5 47
-2 50 4 3 7 27 8 53 0 27 6 52 13 56 7 4 9 15 5 26 -6 15 -4 17 11 12 10 -4
27 -1 40 7 22 15 53 6 41 -12 -3 -6 12 -16 36 -24 22 -7 44 -20 48 -28 5 -8
21 -38 37 -65 16 -28 51 -105 78 -170 54 -136 100 -231 115 -240 12 -7 4 15
-42 119 -31 71 -88 257 -88 287 0 25 -24 66 -54 94 -15 14 -24 30 -21 35 3 6
2 10 -3 10 -5 0 -9 12 -9 26 0 15 -7 31 -14 36 -10 6 -7 7 9 3 23 -7 23 -6 8
24 -9 16 -16 37 -16 46 0 9 -6 23 -12 30 -56 62 -76 115 -43 115 21 0 19 13
-4 27 -14 9 -18 21 -16 45 4 46 22 88 39 88 7 0 20 7 27 16 11 14 10 18 -5 29
-10 8 -24 11 -32 8 -8 -3 -14 -2 -14 1 0 4 10 11 23 16 19 8 18 9 -13 10 -19
0 -39 4 -45 8 -17 12 -16 39 0 46 9 3 14 10 10 15 -3 5 -1 12 5 16 5 3 10 15
10 27 0 17 -5 20 -29 16 -17 -2 -28 -1 -25 4 3 4 14 8 26 8 17 0 18 3 8 15
-10 12 -9 16 5 21 9 4 20 2 24 -5 6 -9 11 -8 21 4 18 21 -2 44 -23 27 -8 -7
-17 -9 -20 -5 -10 9 -9 53 1 53 5 0 9 6 9 13 0 6 2 19 4 27 3 10 -4 15 -21 17
-43 2 -45 3 -27 14 14 8 17 18 12 37 -13 50 -14 62 -6 62 5 0 15 15 22 33 14
31 15 38 18 65 0 7 8 12 17 10 12 -2 17 6 20 26 2 16 9 33 16 37 9 6 8 10 -6
15 -14 5 -15 9 -4 15 15 10 20 49 5 49 -5 0 -4 7 3 15 11 14 14 13 25 -7 6
-13 8 -26 3 -29 -12 -8 13 -36 40 -44 20 -6 22 -4 17 19 -16 78 -16 74 6 69
26 -7 35 -29 19 -48 -6 -8 -9 -19 -5 -24 13 -21 17 -99 5 -106 -16 -10 -41 15
-35 34 7 22 -8 42 -24 32 -10 -7 -11 -13 -2 -30 12 -22 6 -27 -70 -54 -19 -6
-32 -67 -18 -82 6 -5 9 -3 9 8 0 56 57 95 60 40 5 -105 4 -116 -7 -120 -7 -3
-13 2 -13 10 0 8 -7 17 -15 21 -17 6 -21 -9 -5 -19 6 -3 10 -19 10 -35 0 -16
5 -32 10 -35 6 -3 10 -1 10 5 0 6 5 8 12 4 7 -5 9 -2 5 9 -3 8 1 21 10 28 12
11 18 9 34 -11 12 -17 19 -20 19 -10 0 19 -15 42 -26 40 -15 -2 -17 32 -2 41
11 8 11 10 -1 18 -18 12 1 47 29 54 17 4 21 1 18 -17 -1 -12 6 -35 16 -50 10
-16 13 -25 7 -22 -7 5 -11 -3 -11 -21 0 -16 -5 -34 -11 -40 -6 -6 -11 -17 -13
-24 -7 -39 -19 -59 -34 -57 -11 2 -18 -5 -20 -21 -3 -18 0 -22 12 -18 9 4 26
-3 41 -17 22 -20 23 -25 10 -36 -12 -10 -15 -9 -15 4 0 10 -8 25 -17 34 -16
16 -16 15 -9 -8 4 -14 8 -31 8 -37 1 -7 10 -13 20 -13 10 0 18 -8 19 -17 1
-12 4 -9 8 7 5 18 15 26 34 28 16 2 27 9 27 19 0 10 -6 14 -20 10 -11 -3 -18
-1 -14 4 3 5 11 9 19 9 7 0 17 9 20 21 5 15 10 18 20 9 8 -6 12 -17 9 -24 -3
-7 2 -19 11 -26 30 -25 6 -90 -33 -90 -7 0 -12 -11 -12 -25 0 -30 3 -30 36 -9
20 13 28 14 37 5 9 -10 8 -16 -7 -27 -24 -17 -40 -18 -30 -1 6 10 4 10 -7 0
-19 -18 -59 -16 -59 2 0 8 -4 15 -10 15 -15 0 -12 -27 6 -44 8 -9 26 -19 40
-22 29 -7 30 -13 7 -30 -14 -10 -15 -15 -6 -25 9 -9 8 -17 -4 -36 -14 -21 -18
-22 -32 -10 -9 8 -24 17 -33 20 -15 5 -18 1 -18 -23 0 -30 14 -41 23 -17 3 7
6 5 6 -5 1 -10 -6 -18 -15 -18 -12 0 -14 -4 -6 -12 5 -7 13 -24 16 -38 5 -17
4 -21 -2 -11 -5 7 -15 10 -22 6 -8 -5 -7 -12 6 -26 17 -19 17 -22 -4 -65 -24
-48 -29 -99 -11 -110 6 -3 8 -16 5 -28 -7 -27 17 -66 28 -48 13 21 25 13 66
-43 22 -30 46 -55 53 -55 9 0 12 33 12 123 1 156 6 207 23 207 10 0 11 -11 6
-47 -9 -53 -9 -65 0 -140 8 -64 18 -92 51 -141 14 -20 25 -47 25 -59 0 -28 13
-35 78 -44 38 -5 63 -15 81 -33 15 -14 34 -26 43 -26 21 0 85 -27 93 -40 3 -5
15 -10 26 -10 11 0 22 -7 25 -15 4 -8 12 -15 20 -15 8 0 19 -9 26 -20 7 -11
19 -20 26 -20 29 0 111 -42 106 -55 -6 -14 22 -23 100 -31 66 -8 81 -16 82
-51 0 -15 5 -27 10 -27 5 1 24 4 42 7 22 5 32 3 32 -6 0 -8 16 -14 42 -16 47
-2 59 -8 39 -20 -24 -15 18 -22 62 -10 54 14 87 37 87 60 0 11 7 19 15 19 9 0
18 7 21 15 4 8 15 15 26 15 10 0 17 4 13 9 -3 5 11 15 30 21 19 6 35 15 35 19
0 4 24 23 54 41 30 19 52 39 49 44 -4 5 1 7 10 3 11 -4 14 -2 11 7 -3 9 6 18
25 24 36 13 62 52 34 52 -10 0 -65 -14 -122 -30 -57 -17 -112 -30 -122 -30
-10 0 -21 -4 -24 -10 -8 -13 -112 -13 -120 1 -4 6 -17 14 -29 19 -19 8 -18 9
10 9 17 1 33 4 37 7 9 10 -4 34 -19 34 -18 0 -74 50 -74 66 0 21 45 43 116 56
l69 13 -50 3 c-79 4 -94 9 -88 31 5 19 43 61 43 47 0 -4 10 -1 23 6 12 7 29
12 37 13 8 0 14 6 12 13 -3 18 28 28 38 11 7 -10 14 -11 32 -2 53 26 145 49
233 58 110 11 135 18 135 36 0 10 -9 21 -20 24 -11 3 -20 11 -20 16 0 14 34
11 66 -5 15 -8 32 -12 38 -9 5 4 -5 13 -22 21 -26 13 -30 20 -26 39 5 20 3 23
-23 23 -16 0 -38 6 -48 14 -18 13 -18 14 2 25 22 11 53 5 65 -13 10 -15 30 43
23 65 -4 11 -15 19 -26 19 -11 0 -22 8 -25 18 -9 30 -21 47 -30 45 -5 -1 -22
7 -39 17 -28 17 -128 38 -214 45 -104 9 -190 25 -197 36 -3 5 -16 9 -29 9 -13
0 -27 5 -30 10 -3 6 -15 10 -26 10 -10 0 -19 5 -19 10 0 6 5 10 12 10 9 0 9 3
1 11 -6 6 -9 18 -6 26 3 7 -3 23 -12 33 -15 16 -31 20 -84 20 -128 0 -373 -40
-496 -82 -83 -27 -194 -84 -227 -116 -15 -14 -30 -23 -33 -20 -9 9 62 66 113
92 144 73 281 115 462 141 106 15 403 33 486 30 70 -3 81 -2 51 5 -21 6 -51
17 -67 25 -17 9 -46 16 -65 17 -19 1 -35 5 -35 10 0 4 71 9 158 9 106 1 144 4
117 10 -24 4 4 6 73 3 95 -4 112 -2 112 10 0 12 -5 13 -23 7 -13 -5 -42 -5
-68 0 -24 4 -71 9 -104 10 -33 1 -53 3 -43 6 23 6 31 33 10 34 -9 1 -3 5 13 9
19 5 -5 7 -62 5 -70 -3 -94 -1 -103 10 -10 12 -4 14 42 10 36 -3 45 -2 28 4
-23 7 -22 8 15 15 22 4 55 11 73 16 39 10 92 -5 92 -26 0 -8 9 -14 19 -14 21
0 37 -17 27 -27 -3 -4 -28 -6 -55 -4 -27 1 -52 -2 -55 -8 -7 -12 103 -21 212
-18 46 1 89 -1 95 -5 7 -4 -4 -8 -23 -9 -19 -1 2 -6 47 -11 45 -5 106 -18 135
-29 29 -10 42 -17 28 -14 -51 9 -206 25 -240 24 -19 -1 17 -7 80 -15 223 -27
458 -89 482 -127 3 -6 28 -10 55 -9 31 2 43 -1 34 -7 -21 -14 4 -23 76 -28 36
-2 74 -8 85 -14 11 -6 26 -8 33 -5 8 3 17 1 20 -4 10 -16 35 -12 29 5 -7 17 4
19 26 5 19 -12 29 -200 11 -200 -7 0 -12 24 -13 58 l-2 57 -3 -53 c-3 -34 -9
-55 -19 -59 -7 -3 -14 -16 -14 -29 0 -27 -3 -28 -31 -14 -23 13 -26 35 -3 26
8 -3 12 -2 9 4 -3 6 -19 10 -36 10 -24 0 -29 4 -29 26 0 14 4 23 9 20 12 -8
71 5 71 15 0 10 -48 24 -67 21 -8 -2 -13 8 -13 23 0 23 3 25 23 19 12 -4 25
-12 29 -18 6 -8 8 -8 8 1 0 24 -32 43 -74 43 -23 0 -46 4 -51 9 -6 5 -32 14
-60 19 -47 10 -52 9 -76 -14 -55 -52 -60 -160 -13 -230 23 -33 23 -35 4 -29
-25 8 -26 -7 -3 -42 15 -23 16 -40 5 -197 -6 -94 -21 -211 -32 -260 -11 -49
-18 -91 -17 -93 5 -5 127 339 134 377 7 44 26 82 57 114 32 35 40 33 20 -6 -9
-17 -31 -107 -50 -200 -18 -93 -49 -222 -68 -287 l-35 -119 18 -98 c33 -171
49 -342 55 -587 2 -64 6 -120 9 -124 4 -3 7 1 7 9 0 9 6 21 14 27 18 16 76
137 76 161 0 10 4 22 10 25 6 3 10 17 10 31 0 28 16 33 23 7 6 -23 11 63 9
145 -1 35 2 61 6 58 4 -2 8 26 8 62 1 37 5 128 9 202 10 164 10 177 0 215 -5
17 -8 41 -7 55 1 14 1 57 1 95 l0 70 53 56 c68 70 89 96 69 84 -8 -5 -3 7 12
26 14 19 29 55 33 79 4 25 11 53 16 62 5 12 5 18 -2 18 -5 0 -10 -6 -11 -12 0
-7 -5 -4 -10 7 -8 16 -8 15 -4 -8 3 -16 2 -26 -3 -23 -5 3 -8 -6 -6 -20 1 -16
-5 -29 -17 -37 -10 -6 -19 -17 -19 -23 0 -6 -7 -18 -16 -25 -9 -7 -20 -23 -25
-36 -9 -23 -63 -63 -86 -63 -7 0 -13 7 -13 15 0 9 6 12 15 9 20 -8 20 22 0 34
-13 7 -11 14 14 48 17 21 34 44 38 49 40 52 62 73 66 62 2 -6 9 5 16 26 7 20
16 37 19 37 4 0 13 14 20 30 14 30 35 32 30 3 -2 -9 3 -18 11 -21 10 -3 13 2
9 21 -3 14 -1 25 4 24 5 -1 10 18 12 43 1 30 13 62 33 95 17 28 37 68 44 90 7
22 26 69 43 105 16 36 30 70 31 75 0 6 6 28 12 50 6 22 14 52 17 68 4 15 12
27 20 27 7 0 18 18 25 40 8 26 18 40 29 40 14 0 15 2 2 9 -8 6 -18 7 -23 4 -6
-4 -7 6 -3 23 3 16 8 45 11 64 2 19 8 50 14 68 5 18 6 44 1 60 -11 39 -5 115
9 120 6 2 11 11 10 20 0 11 -2 12 -6 5 -10 -25 -25 -13 -20 16 3 15 1 33 -4
38 -8 8 -7 13 0 17 6 4 11 0 11 -8 0 -10 6 -13 16 -9 10 4 17 -1 21 -16 3 -11
9 -21 13 -21 5 0 17 -3 27 -7 10 -3 2 10 -19 31 -29 28 -38 45 -38 71 0 18 -3
41 -7 51 -4 11 -3 15 5 10 14 -8 9 29 -8 66 -7 14 -20 54 -29 89 -9 34 -22 64
-30 67 -11 4 -10 -1 2 -19 10 -13 17 -28 17 -34 0 -5 -9 5 -20 23 -11 18 -18
37 -15 42 3 5 1 19 -5 30 -9 16 -8 18 5 14 18 -7 21 21 4 32 -7 4 -9 24 -5 54
5 34 3 50 -6 54 -10 5 -10 7 0 12 6 3 12 14 12 24 0 10 4 21 9 25 6 3 6 17 1
35 -12 41 -7 86 18 153 25 65 27 81 10 71 -8 -5 -10 4 -6 34 5 34 3 40 -10 35
-12 -5 -14 -1 -10 20 3 15 1 27 -5 27 -5 0 -7 9 -4 20 3 11 1 20 -4 20 -5 0
-9 12 -9 28 0 48 -20 111 -58 190 -16 33 -19 48 -12 68 6 15 15 22 22 18 7 -5
8 -3 4 5 -5 7 -11 10 -14 7 -11 -11 -30 15 -25 35 4 15 2 18 -13 12 -13 -5
-16 -3 -11 10 4 11 2 14 -9 10 -7 -3 -14 0 -14 5 0 18 20 25 35 12 11 -9 12
-7 8 12 -6 23 -6 23 15 5 11 -10 26 -32 32 -48 7 -16 16 -29 20 -29 5 0 17
-15 29 -32 11 -18 21 -29 21 -24 0 11 -39 76 -59 98 -43 46 -45 50 -33 69 7
11 8 19 3 19 -6 0 -13 -5 -16 -11 -7 -11 -74 58 -75 77 0 6 -10 10 -22 10 -19
-1 -23 5 -25 32 -1 17 2 32 5 32 19 0 80 -47 129 -98 70 -74 106 -149 107
-224 1 -32 4 -58 8 -58 8 0 7 -22 -2 -30 -3 -3 -11 -18 -18 -34 -12 -27 -12
-28 3 -16 14 12 18 11 26 -1 13 -21 11 -49 -5 -49 -9 0 -12 -8 -8 -25 2 -14 8
-25 13 -25 5 0 9 -4 9 -10 0 -5 -5 -9 -11 -7 -6 1 -14 -4 -17 -12 -3 -9 0 -11
8 -6 10 6 12 2 7 -15 -4 -15 1 -32 13 -47 l18 -24 1 43 c0 24 3 79 6 123 14
205 -59 376 -218 511 -7 6 -32 24 -55 39 -23 15 -42 34 -42 42 0 7 -6 16 -14
19 -8 3 -16 14 -19 25 -4 16 -2 19 14 14 26 -9 24 7 -6 39 -21 23 -81 150 -89
188 -2 7 -8 26 -14 41 -7 16 -12 34 -12 40 0 7 -11 35 -24 62 -14 28 -34 71
-46 97 -11 25 -27 52 -35 58 -19 16 -66 97 -63 109 2 5 0 8 -4 8 -5 -1 -26 27
-49 63 -23 36 -49 76 -59 90 -23 33 -53 92 -56 107 -2 13 -14 29 -84 118 -22
27 -40 53 -40 57 0 4 -13 15 -30 25 -16 9 -30 22 -30 28 0 17 -179 195 -195
195 -9 0 -18 6 -21 14 -3 8 -13 15 -22 15 -38 0 -103 33 -90 46 3 3 13 -1 22
-10 9 -9 16 -12 16 -7 0 9 -43 42 -55 42 -4 0 -3 -5 1 -11 4 -8 -1 -7 -17 1
-32 15 -77 35 -113 49 -16 7 -26 14 -24 17 3 2 18 0 33 -6 47 -18 37 -5 -18
23 -29 15 -62 27 -74 27 -12 0 -25 5 -28 10 -4 6 -10 8 -15 5 -5 -3 -32 4 -60
16 -28 12 -69 22 -93 22 -23 1 -46 7 -52 14 -11 13 -118 35 -138 28 -6 -2 -28
0 -47 4 l-35 9 35 2 c19 2 -3 6 -49 10 -46 4 -87 13 -91 19 -4 7 -37 14 -76
16 -61 3 -67 2 -49 -11 17 -13 14 -14 -31 -13 -62 1 -107 17 -54 19 19 1 29 4
22 7 -6 2 -10 9 -7 14 4 5 -15 0 -40 -11 -46 -20 -72 -19 -59 2 5 8 1 9 -10 5
-10 -4 -23 -7 -29 -8 -7 0 -3 -4 8 -9 17 -8 16 -9 -10 -11 -27 -2 -26 -3 10
-9 l40 -7 -47 -2 c-37 -1 -46 2 -42 13 8 21 -92 15 -109 -6 -6 -9 -19 -18 -27
-21 -10 -4 -9 -6 6 -6 11 -1 29 6 40 14 10 8 26 14 34 15 13 0 13 -1 0 -10 -8
-5 -15 -14 -15 -20 0 -9 -5 -11 -22 -9 -5 1 -18 0 -31 -1 -16 -1 -25 5 -29 19
-4 17 -10 20 -27 15 -22 -7 -36 -22 -36 -39 0 -6 -9 -11 -20 -12 -11 -1 -18 2
-15 8 4 5 2 9 -3 9 -5 0 -14 -11 -20 -25 -6 -14 -15 -24 -19 -23 -16 3 -62
-25 -56 -35 3 -5 -3 -6 -16 -2 -14 4 -28 -1 -43 -16 -13 -12 -17 -18 -9 -14
19 11 5 -31 -21 -60 -15 -17 -29 -23 -49 -20 -16 2 -31 -1 -35 -6 -3 -5 -10
-7 -15 -4 -5 3 -6 -1 -3 -9 4 -10 -6 -21 -28 -32 -18 -10 -37 -18 -42 -19 -13
0 -45 -58 -38 -69 3 -5 -7 -6 -21 -2 -16 4 -27 2 -30 -6 -2 -7 -3 -4 -1 7 2
11 4 37 4 57 0 29 3 36 15 32 8 -4 15 -12 15 -19 0 -8 5 -17 11 -21 7 -4 10 5
9 27 -3 49 -1 59 10 59 6 0 11 -10 11 -22 1 -13 5 -5 8 17 4 22 5 48 3 58 -6
25 -24 21 -20 -5 2 -15 -2 -22 -10 -20 -8 1 -11 -1 -8 -6 8 -14 -25 -54 -39
-48 -8 3 -16 0 -19 -7 -3 -9 -5 -8 -5 1 -1 7 -5 10 -11 7 -5 -3 -10 -2 -10 4
0 5 5 11 11 13 7 2 7 12 0 31 -6 16 -16 25 -22 22 -6 -4 -8 -13 -5 -20 3 -8 0
-16 -7 -19 -9 -3 -9 -5 1 -5 16 -1 5 -79 -14 -102 -16 -18 -18 -45 -4 -54 6
-3 10 -10 10 -16 0 -5 -9 -4 -20 3 -11 7 -18 19 -15 26 2 7 -2 15 -10 18 -8 4
-15 15 -15 25 0 10 -4 19 -10 19 -5 0 -21 22 -35 49 -16 32 -35 54 -54 62 -18
8 -26 16 -19 20 14 9 -27 59 -80 101 -53 41 -63 51 -106 102 -43 52 -71 70
-87 60 -6 -3 2 -14 20 -25 17 -10 31 -24 31 -30 0 -7 -9 -5 -25 5 -36 24 -42
20 -9 -6 49 -36 50 -39 14 -33 l-35 5 30 -11 c17 -6 44 -17 61 -25 36 -16 139
-123 149 -154 4 -11 10 -18 15 -15 12 7 27 -15 38 -59 11 -37 11 -38 -9 -21
-10 10 -19 25 -19 33 0 9 -3 12 -7 9 -9 -9 -34 13 -27 24 3 5 2 8 -3 7 -11 -4
-84 52 -79 61 2 3 -11 23 -29 45 -26 32 -35 37 -50 28 -17 -9 -17 -10 2 -20
11 -6 22 -9 25 -7 3 3 4 -5 3 -18 -1 -12 2 -33 7 -47 l8 -25 -20 25 c-34 42
-84 90 -93 90 -4 0 -5 -5 -1 -12 5 -7 3 -8 -6 -3 -10 6 -12 4 -7 -8 3 -10 2
-17 -2 -17 -5 0 -11 7 -15 15 -3 8 -2 15 2 15 4 0 7 14 8 30 1 17 -3 30 -7 30
-5 0 -6 7 -2 16 5 13 8 13 15 2 8 -11 9 -10 6 1 -2 8 -17 15 -32 17 -16 2 -35
5 -42 8 -19 7 -18 42 1 50 8 3 15 1 15 -5 0 -6 5 -7 10 -4 8 5 7 11 -1 21 -6
7 -15 12 -19 9 -4 -3 -10 5 -14 18 -5 18 -8 19 -15 8 -8 -12 -14 -13 -36 -3
-37 17 -47 15 -33 -8 8 -12 19 -18 29 -15 17 6 47 -21 36 -32 -4 -3 -1 -15 4
-26 10 -18 9 -19 -12 -13 -65 17 -74 18 -59 7 13 -9 13 -11 -3 -11 -9 0 -22
11 -28 24 -7 14 -20 24 -33 24 -11 0 -45 11 -74 25 -28 14 -50 21 -46 16 9
-15 -13 -10 -26 6 -13 16 -45 21 -36 6 3 -5 -8 -11 -25 -13 -25 -4 -33 -1 -37
14 -2 10 -12 18 -21 18 -13 0 -13 -2 -2 -9z m134 -47 c39 -9 81 -23 93 -30 11
-8 23 -12 26 -9 3 3 8 -1 11 -10 5 -12 1 -14 -18 -9 -15 4 -25 2 -25 -5 0 -7
-8 -8 -26 -1 -31 12 -37 12 -30 1 3 -4 20 -11 37 -15 40 -8 59 -23 59 -47 0
-16 -4 -17 -25 -9 -17 6 -25 6 -25 -1 0 -6 -6 -9 -12 -6 -7 2 -13 10 -13 17 0
7 -18 19 -39 27 -43 14 -88 54 -69 60 16 6 4 41 -16 46 -44 12 9 5 72 -9z
m-386 -10 c-3 -3 -12 -4 -19 -1 -8 3 -5 6 6 6 11 1 17 -2 13 -5z m303 -5 c0 7
5 9 10 6 6 -4 4 -12 -6 -22 -13 -14 -17 -14 -25 -2 -14 22 -11 33 6 19 11 -9
15 -9 15 -1z m-19 -40 c41 -13 62 -49 28 -49 -10 0 -19 7 -19 15 0 17 -17 20
-22 5 -4 -12 -108 8 -108 21 0 4 15 10 33 12 17 2 36 5 41 5 5 1 26 -3 47 -9z
m1901 -31 c-5 -5 -19 -5 -33 1 -22 8 -22 9 9 9 19 -1 29 -5 24 -10z m-195 -4
c30 -8 19 -24 -15 -23 -24 0 -25 1 -7 9 17 6 14 8 -15 12 -24 3 -27 5 -10 6
14 1 35 -1 47 -4z m-1892 -14 c3 -5 -1 -10 -9 -10 -9 0 -16 5 -16 10 0 6 4 10
9 10 6 0 13 -4 16 -10z m593 -6 c21 -15 30 -34 15 -34 -5 1 -21 12 -38 25 -34
28 -14 35 23 9z m-298 -4 c13 -9 13 -10 0 -10 -8 0 -22 5 -30 10 -13 9 -13 10
0 10 8 0 22 -5 30 -10z m1545 0 c3 -5 1 -10 -4 -10 -6 0 -11 5 -11 10 0 6 2
10 4 10 3 0 8 -4 11 -10z m-1355 -31 c13 -24 13 -29 -3 -29 -24 0 -51 26 -44
43 8 20 33 12 47 -14z m1279 10 c-14 -7 -74 -13 -94 -9 -5 1 8 8 30 14 42 13
89 10 64 -5z m461 17 c0 -2 -11 -6 -25 -8 -14 -3 -25 -1 -25 3 0 5 11 9 25 9
14 0 25 -2 25 -4z m-2170 -16 c0 -12 -8 -12 -35 0 -18 8 -17 9 8 9 15 1 27 -3
27 -9z m508 -18 c31 -28 47 -57 18 -33 -7 6 -21 9 -30 5 -11 -4 -16 -1 -16 10
0 9 -7 19 -15 22 -8 4 -15 10 -15 15 0 18 27 9 58 -19z m1409 22 c-3 -3 -12
-4 -19 -1 -8 3 -5 6 6 6 11 1 17 -2 13 -5z m-104 -22 c-17 -18 -39 -20 -28 -2
3 4 -5 6 -17 3 -19 -4 -20 -3 -8 6 8 6 27 11 43 11 26 0 26 -1 10 -18z m-214
-1 c8 -5 9 -11 3 -15 -14 -8 -43 4 -36 15 7 11 15 11 33 0z m787 -12 c6 -11
-37 -12 -62 -2 -16 6 -16 7 2 13 21 8 52 2 60 -11z m-2301 1 c-3 -5 -23 -8
-45 -7 -50 2 -42 14 10 15 22 1 38 -3 35 -8z m1640 -1 c17 -8 17 -9 -5 -4 -16
2 -39 -4 -58 -15 -39 -24 -49 -25 -32 -5 7 8 19 15 26 15 8 0 14 5 14 10 0 12
28 12 55 -1z m142 5 c-3 -3 -12 -4 -19 -1 -8 3 -5 6 6 6 11 1 17 -2 13 -5z
m619 -16 c3 -5 -6 -6 -23 -2 -40 9 -50 22 -13 16 17 -2 33 -8 36 -14z m-2487
-2 c7 -5 39 -8 72 -8 33 -1 62 -5 65 -9 3 -5 14 -9 25 -9 10 0 19 -4 19 -8 0
-8 -123 1 -190 14 -41 9 -37 9 -75 0 -29 -7 -30 -7 -11 11 19 18 72 23 95 9z
m1526 -19 c-16 -12 -34 -22 -40 -22 -5 -1 -20 -6 -32 -13 -19 -10 -20 -10 -16
9 4 15 12 20 29 16 13 -2 22 1 21 7 -1 6 6 11 15 11 10 0 23 6 29 12 7 7 15
10 18 7 3 -3 -7 -15 -24 -27z m745 17 c22 -4 23 -3 5 5 l-20 10 20 0 c11 0 27
-4 35 -9 8 -5 11 -10 5 -10 -5 0 -4 -4 4 -9 21 -13 -51 -26 -75 -13 -11 5 -41
10 -68 10 -27 1 -51 3 -53 6 -8 8 81 25 102 19 11 -2 31 -7 45 -9z m286 1 c17
-13 16 -14 -15 -5 -41 11 -51 20 -25 20 11 0 29 -7 40 -15z m-2681 -15 c3 -6
-4 -10 -17 -10 -18 0 -20 2 -8 10 19 12 18 12 25 0z m470 0 c3 -6 -1 -7 -9 -4
-18 7 -21 14 -7 14 6 0 13 -4 16 -10z m248 -13 c4 3 7 4 7 0 0 -17 -20 -14
-36 6 -19 22 -19 22 2 4 11 -9 24 -14 27 -10z m1314 17 c-3 -3 -12 -4 -19 -1
-8 3 -5 6 6 6 11 1 17 -2 13 -5z m-1407 -20 c0 -2 -7 -4 -15 -4 -8 0 -15 4
-15 10 0 5 7 7 15 4 8 -4 15 -8 15 -10z m155 -4 c18 -20 18 -21 -11 -18 -21 1
-30 8 -31 20 -2 24 20 23 42 -2z m930 10 c-3 -5 -14 -10 -23 -10 -15 0 -15 2
-2 10 20 13 33 13 25 0z m455 0 c0 -5 -2 -10 -4 -10 -3 0 -8 5 -11 10 -3 6 -1
10 4 10 6 0 11 -4 11 -10z m490 -10 c0 -5 -14 -7 -32 -3 -46 8 -48 13 -5 13
21 0 37 -4 37 -10z m-2154 -27 c-6 -6 -36 9 -36 18 0 5 9 4 20 -3 10 -7 18
-14 16 -15z m354 17 c0 -5 -2 -10 -4 -10 -3 0 -8 5 -11 10 -3 6 -1 10 4 10 6
0 11 -4 11 -10z m-160 -15 c7 -8 9 -15 6 -15 -4 0 -14 7 -22 15 -9 8 -11 15
-6 15 5 0 15 -7 22 -15z m1055 5 c-3 -5 -11 -10 -16 -10 -6 0 -7 5 -4 10 3 6
11 10 16 10 6 0 7 -4 4 -10z m532 4 c-3 -3 -12 -4 -19 -1 -8 3 -5 6 6 6 11 1
17 -2 13 -5z m-2154 -11 c-7 -2 -21 -2 -30 0 -10 3 -4 5 12 5 17 0 24 -2 18
-5z m94 1 c-3 -3 -12 -4 -19 -1 -8 3 -5 6 6 6 11 1 17 -2 13 -5z m1438 -4 c-3
-5 -11 -10 -16 -10 -6 0 -7 5 -4 10 3 6 11 10 16 10 6 0 7 -4 4 -10z m-1748
-6 c-3 -3 -12 -4 -19 -1 -8 3 -5 6 6 6 11 1 17 -2 13 -5z m380 0 c-3 -3 -12
-4 -19 -1 -8 3 -5 6 6 6 11 1 17 -2 13 -5z m-735 -26 c-5 -5 -29 -12 -52 -15
-33 -5 -41 -3 -36 6 5 7 17 16 29 20 27 10 72 2 59 -11z m43 12 c-3 -5 -10
-10 -16 -10 -5 0 -9 5 -9 10 0 6 7 10 16 10 8 0 12 -4 9 -10z m1225 -5 c11
-13 10 -14 -4 -9 -9 3 -16 10 -16 15 0 13 6 11 20 -6z m88 -27 c7 2 7 -2 4
-30 -2 -14 -34 18 -52 53 l-13 24 27 -25 c15 -14 31 -24 34 -22z m-758 6 c0
-2 -26 -4 -57 -3 -39 1 -50 3 -34 8 24 6 91 3 91 -5z m-263 0 c-3 -3 -12 -4
-19 -1 -8 3 -5 6 6 6 11 1 17 -2 13 -5z m-47 -14 c8 -5 11 -10 5 -10 -5 0 -17
5 -25 10 -8 5 -10 10 -5 10 6 0 17 -5 25 -10z m3074 -3 c17 -12 17 -14 2 -20
-9 -4 -16 -3 -16 2 0 4 -10 13 -22 19 -22 10 -22 11 -2 11 11 1 28 -5 38 -12z
m-3134 -7 c-14 -4 -38 -8 -55 -8 -25 -1 -27 1 -10 8 11 5 36 8 55 8 32 0 33
-1 10 -8z m-187 -7 c-7 -2 -19 -2 -25 0 -7 3 -2 5 12 5 14 0 19 -2 13 -5z
m210 -10 c-7 -2 -19 -2 -25 0 -7 3 -2 5 12 5 14 0 19 -2 13 -5z m3162 -13 c19
-8 19 -9 -2 -9 -12 -1 -25 4 -28 9 -7 12 2 12 30 0z m-3585 -8 c0 -9 -69 -42
-98 -47 -28 -6 -28 -6 -7 -15 18 -8 18 -9 2 -9 -24 -1 -33 27 -14 46 8 8 29
16 46 18 17 1 34 5 38 9 9 9 33 8 33 -2z m2436 -21 c-4 -5 -1 -11 6 -13 8 -3
7 -6 -3 -10 -10 -4 -15 1 -16 13 -1 10 3 19 8 19 6 0 8 -4 5 -9z m-2587 -34
c-10 -21 -22 -31 -71 -55 -5 -2 11 17 35 41 23 25 43 44 45 42 1 -1 -2 -14 -9
-28z m3816 22 c11 -17 -1 -21 -15 -4 -8 9 -8 15 -2 15 6 0 14 -5 17 -11z
m-1830 -8 c3 -5 1 -12 -5 -16 -5 -3 -10 1 -10 9 0 18 6 21 15 7z m-2025 -5 c0
-8 -31 -36 -41 -36 -17 0 -9 17 14 28 27 13 27 13 27 8z m155 -6 c-3 -5 -12
-10 -18 -10 -7 0 -6 4 3 10 19 12 23 12 15 0z m2415 -39 c0 -5 -7 -12 -16 -15
-14 -5 -15 -4 -4 9 14 17 20 19 20 6z m-533 -23 c-3 -8 -6 -5 -6 6 -1 11 2 17
5 13 3 -3 4 -12 1 -19z m-2097 2 c0 -5 -5 -10 -11 -10 -5 0 -7 5 -4 10 3 6 8
10 11 10 2 0 4 -4 4 -10z m-50 -25 c-14 -17 -36 -20 -45 -5 -3 5 0 7 8 4 8 -3
18 -1 22 5 3 6 11 11 17 11 7 0 6 -6 -2 -15z m4238 -44 c23 -21 42 -44 42 -51
0 -7 -6 -6 -15 4 -9 9 -21 19 -28 23 -21 14 -61 63 -51 63 5 0 28 -17 52 -39z
m-1698 -1 c-6 -11 -15 -20 -20 -20 -6 0 -5 9 2 20 7 11 16 20 21 20 4 0 3 -9
-3 -20z m1458 -65 c24 -14 48 -22 53 -19 5 3 6 -2 3 -11 -6 -15 -25 -8 -99 42
-34 23 -2 14 43 -12z m-4244 -10 c-6 -15 -44 -41 -44 -30 0 8 34 43 42 44 4 1
5 -6 2 -14z m4586 -5 c0 -5 -5 -10 -11 -10 -5 0 -7 5 -4 10 3 6 8 10 11 10 2
0 4 -4 4 -10z m42 -47 c-6 -3 -10 -9 -6 -14 9 -15 -13 -10 -26 6 -9 11 -9 17
2 29 11 13 15 13 28 -1 11 -12 12 -16 2 -20z m2 -61 c10 -12 21 -21 24 -18 3
3 -3 15 -13 26 -10 11 -15 23 -12 27 7 7 86 -76 87 -92 1 -5 21 -37 45 -70 54
-74 109 -165 102 -171 -7 -7 -110 127 -111 146 0 3 -13 16 -29 29 -16 13 -40
42 -53 63 -13 21 -30 38 -38 38 -12 0 -46 40 -46 55 0 10 24 -8 44 -33z m146
-74 c0 -14 -19 1 -31 25 -12 22 -12 22 10 3 11 -11 21 -23 21 -28z m-335 2
c-3 -5 -1 -20 5 -32 10 -21 10 -21 -9 2 -25 30 -26 40 -5 40 8 0 12 -4 9 -10z
m-4775 -18 c0 -11 -22 -32 -32 -32 -5 0 -4 9 2 20 11 20 30 28 30 12z m-98
-59 c-22 -21 -43 -51 -46 -68 -8 -31 -62 -95 -81 -95 -6 0 -22 -11 -35 -25
-31 -33 -41 -32 -29 5 6 17 15 30 19 30 4 0 25 15 46 34 21 19 41 33 45 31 3
-2 6 2 6 10 0 18 -1 18 -35 1 -15 -8 -34 -26 -42 -40 -7 -14 -21 -26 -31 -26
-22 0 -42 -53 -26 -69 8 -8 -5 -27 -48 -68 -32 -32 -75 -80 -97 -106 -21 -27
-38 -45 -38 -40 0 4 -14 -14 -30 -42 -17 -27 -49 -79 -71 -115 -23 -36 -45
-75 -50 -87 -8 -22 -29 -32 -29 -14 0 14 93 204 107 219 7 7 13 21 13 31 0 10
9 26 20 36 11 10 20 22 20 27 0 30 180 248 205 248 4 0 23 14 42 30 18 17 41
30 50 30 9 0 13 3 10 6 -8 9 37 44 56 44 9 0 30 14 47 31 17 17 33 29 36 26 3
-3 -12 -23 -34 -44z m48 9 c0 -4 -16 -24 -37 -43 -20 -18 -32 -27 -27 -19 4 8
18 23 31 33 13 10 21 23 18 28 -4 5 -1 9 4 9 6 0 11 -4 11 -8z m4954 -58 c3
-8 2 -12 -4 -9 -6 3 -10 10 -10 16 0 14 7 11 14 -7z m206 -42 c0 -4 14 -22 30
-40 36 -40 39 -56 7 -41 -33 15 -73 89 -47 89 6 0 10 -3 10 -8z m-42 -27 c-3
-3 -9 2 -12 12 -6 14 -5 15 5 6 7 -7 10 -15 7 -18z m122 -85 c16 -9 42 -58 44
-85 2 -17 43 -65 50 -58 3 3 6 -5 6 -19 0 -14 8 -32 17 -39 11 -10 14 -10 9
-1 -14 24 2 12 19 -15 17 -25 33 -74 39 -115 1 -9 14 -35 29 -57 15 -22 27
-45 27 -51 0 -5 7 -10 15 -10 8 0 15 -5 15 -11 0 -5 -5 -7 -12 -3 -8 5 -9 2
-4 -12 10 -24 46 -135 46 -141 0 -2 -15 11 -32 30 -41 42 -72 96 -70 122 0 16
0 17 -4 3 -11 -36 -47 -7 -38 29 4 15 0 25 -14 32 -11 6 -23 24 -27 41 -9 41
-34 90 -46 90 -6 0 -9 8 -7 18 1 9 -5 28 -15 42 -9 13 -17 32 -17 42 0 9 -4
20 -10 23 -6 4 -7 -1 -3 -12 3 -10 3 -15 -2 -11 -4 4 -8 29 -9 55 -1 26 -5 54
-10 62 -7 10 -6 12 4 6 9 -5 11 -4 6 3 -4 7 -13 12 -19 12 -7 0 -18 9 -25 20
-10 17 -10 20 4 20 8 0 24 -4 34 -10z m-5342 -70 c-23 -32 -28 -35 -28 -20 0
8 39 50 47 50 2 0 -6 -13 -19 -30z m72 16 c0 -2 -8 -10 -17 -17 -16 -13 -17
-12 -4 4 13 16 21 21 21 13z m-154 -111 c-9 -9 -16 -21 -16 -26 0 -5 -5 -9
-11 -9 -6 0 -1 14 11 31 12 16 24 28 27 25 3 -3 -2 -12 -11 -21z m-46 -80 c-7
-9 -15 -13 -18 -10 -3 2 1 11 8 20 7 9 15 13 18 10 3 -2 -1 -11 -8 -20z m-196
-60 c-9 -14 -19 -23 -22 -20 -5 4 26 45 35 45 2 0 -4 -11 -13 -25z m5886 -45
c6 -11 8 -20 6 -20 -3 0 -10 9 -16 20 -6 11 -8 20 -6 20 3 0 10 -9 16 -20z
m-5955 -71 c-9 -17 -19 -28 -22 -25 -6 6 23 56 32 56 3 0 -2 -14 -10 -31z m15
-59 c-6 -12 -14 -19 -17 -17 -2 3 1 15 7 27 6 12 14 19 17 17 2 -3 -1 -15 -7
-27z m-37 -64 c-10 -13 -19 -23 -21 -21 -5 5 22 45 31 45 4 0 0 -11 -10 -24z
m6101 -2 c3 -8 2 -12 -4 -9 -6 3 -10 10 -10 16 0 14 7 11 14 -7z m-6175 -40
c-9 -26 -39 -73 -39 -63 0 20 34 98 41 94 4 -3 4 -17 -2 -31z m105 1 c-7 -16
-24 -21 -24 -6 0 8 7 13 27 20 1 1 0 -6 -3 -14z m-152 -127 c-8 -8 -9 -4 -5
13 4 13 8 18 11 10 2 -7 -1 -18 -6 -23z m78 8 c0 -8 -4 -17 -9 -21 -6 -3 -9 4
-8 15 1 23 17 28 17 6z m6305 -234 c-11 -11 -40 15 -44 39 -3 24 -3 24 24 -5
14 -15 23 -31 20 -34z m-2766 -99 c-4 -23 3 -33 21 -33 11 0 20 -4 20 -9 0
-13 -63 -20 -77 -9 -8 6 -15 3 -22 -9 -6 -10 -11 -12 -11 -5 0 6 -7 12 -15 12
-9 0 -15 9 -15 25 0 24 10 32 24 18 12 -12 46 -10 57 4 13 15 20 17 18 6z
m-134 -53 c3 -5 1 -10 -4 -10 -6 0 -11 5 -11 10 0 6 2 10 4 10 3 0 8 -4 11
-10z m182 -42 c-3 -8 -6 -5 -6 6 -1 11 2 17 5 13 3 -3 4 -12 1 -19z m203 -37
c0 -29 -15 -33 -18 -5 -1 13 3 24 8 24 6 0 10 -9 10 -19z m103 5 c10 3 17 1
17 -6 0 -6 4 -8 10 -5 10 6 106 -19 149 -38 19 -10 25 -8 37 8 8 10 17 15 21
12 4 -4 1 -13 -5 -19 -15 -15 -16 -28 -2 -28 6 0 10 7 10 15 0 8 5 15 10 15 6
0 10 -9 10 -19 0 -24 20 -38 30 -21 4 7 16 9 28 6 11 -4 23 -2 27 4 3 6 11 8
16 4 5 -3 6 -10 3 -16 -5 -7 -1 -9 9 -5 9 3 18 -1 22 -11 6 -16 7 -16 19 1 20
26 64 21 105 -14 20 -16 46 -39 59 -49 13 -11 21 -24 17 -29 -3 -6 4 -15 16
-21 24 -13 41 -4 19 10 -8 5 -11 12 -7 16 4 4 13 2 19 -4 14 -14 48 -16 48 -4
0 5 -18 16 -40 25 -46 18 -53 35 -12 32 39 -3 42 -4 42 -16 0 -6 16 -25 35
-43 37 -35 45 -63 20 -72 -8 -4 -15 -10 -15 -16 0 -5 5 -6 10 -3 6 4 11 -6 11
-22 1 -20 3 -22 6 -8 14 68 12 66 41 59 37 -9 38 -12 18 -27 -17 -13 -16 -15
17 -30 19 -9 40 -17 46 -17 6 0 11 -7 11 -15 0 -17 -17 -20 -22 -4 -2 5 -14
-4 -26 -21 -23 -31 -22 -50 4 -50 8 0 14 -4 14 -10 0 -5 -5 -10 -10 -10 -7 0
-7 -6 0 -19 13 -25 13 -41 0 -41 -5 0 -9 3 -7 8 2 7 -6 12 -24 12 -6 0 -3 -7
5 -16 9 -8 16 -30 17 -47 l1 -32 16 37 c20 46 34 49 25 8 -4 -22 0 -36 12 -50
16 -18 17 -22 2 -37 -12 -15 -13 -20 -2 -30 11 -10 15 -10 19 0 3 8 8 7 16 -5
6 -10 18 -18 27 -18 10 0 14 -6 10 -20 -3 -13 -1 -18 6 -13 6 4 8 0 4 -10 -4
-12 -1 -17 11 -18 11 0 6 -6 -13 -14 -16 -8 -27 -15 -22 -16 13 -3 27 -6 35
-9 4 -1 11 -2 15 -1 5 1 6 -3 2 -9 -3 -5 -2 -10 4 -10 6 0 8 -7 5 -15 -4 -10
0 -15 11 -15 12 0 16 -6 13 -18 -3 -10 0 -19 6 -19 6 0 18 -4 27 -7 11 -5 16
-2 16 9 0 9 -10 21 -23 25 -30 12 -38 28 -24 45 16 19 6 45 -17 45 -15 0 -15
2 3 15 16 12 17 16 5 24 -11 7 -4 10 25 13 31 2 39 7 37 22 -1 13 2 15 10 7 7
-7 7 -14 -2 -25 -8 -10 -9 -16 -1 -21 5 -3 10 -1 10 5 0 6 5 8 11 4 11 -7 6
-93 -7 -128 -3 -9 -1 -16 5 -16 6 0 11 8 11 18 0 9 7 29 14 45 8 15 11 27 5
27 -12 0 -12 37 1 45 6 3 10 0 10 -7 0 -8 6 -20 12 -26 18 -18 19 -72 2 -72
-8 0 -14 -9 -14 -19 0 -11 -4 -23 -10 -26 -5 -3 -10 -10 -10 -16 0 -5 14 5 31
23 23 25 28 28 19 10 -10 -20 -9 -23 7 -20 14 2 28 -18 64 -91 25 -52 48 -91
51 -85 3 5 3 3 1 -4 -3 -14 51 -95 117 -176 30 -35 39 -54 35 -70 -5 -15 -4
-17 3 -7 7 10 12 5 21 -20 6 -19 25 -50 42 -69 l31 -35 -22 38 c-30 51 -21 65
18 32 18 -15 30 -30 28 -33 -3 -3 -1 -11 5 -18 7 -8 7 -14 -1 -19 -17 -10 -11
-39 14 -74 13 -18 27 -48 31 -68 3 -20 13 -42 21 -50 8 -8 14 -29 13 -46 -1
-18 2 -41 6 -51 7 -17 5 -18 -21 -12 -16 4 -51 22 -79 40 -66 43 -112 64 -164
72 -31 5 -39 9 -29 16 9 7 8 8 -5 4 -10 -3 -24 -6 -30 -7 -7 0 -2 -4 11 -9 22
-9 31 -30 12 -30 -5 0 -10 4 -10 8 0 5 -19 19 -42 32 -24 13 -54 35 -68 48
-26 26 -135 82 -159 82 -8 0 13 -14 46 -30 33 -17 75 -45 94 -63 19 -17 46
-38 61 -46 16 -8 26 -16 24 -18 -6 -7 -42 14 -93 53 -25 19 -55 37 -69 40 -13
3 -24 9 -24 13 0 4 -11 13 -25 19 -32 15 -38 15 -30 2 7 -12 -22 -2 -50 17
-11 7 -26 13 -35 12 -10 0 -8 -3 5 -9 35 -13 99 -60 84 -60 -8 0 -23 6 -34 14
-30 21 -98 37 -109 26 -6 -6 0 -13 15 -19 22 -9 22 -9 -8 -8 -18 1 -33 7 -33
13 0 13 -37 25 -95 30 -37 3 -39 2 -21 -11 23 -18 50 -20 40 -4 -9 15 36 1 56
-17 12 -12 12 -14 -3 -14 -9 0 -17 -5 -17 -10 0 -6 6 -10 13 -9 26 5 103 -15
165 -42 35 -16 79 -29 97 -29 19 0 37 -5 40 -10 4 -6 3 -9 -2 -8 -4 1 -18 -1
-30 -5 -15 -6 -38 0 -74 19 -45 22 -58 25 -86 16 -20 -6 -47 -7 -70 -1 -60 14
-155 11 -151 -3 3 -9 37 -15 94 -20 125 -10 169 -29 51 -23 -48 3 -86 2 -85
-2 4 -11 -13 -12 -40 -2 -30 12 -82 12 -82 0 0 -5 -10 -6 -22 -3 -23 6 -23 6
2 13 24 7 24 7 3 8 -13 1 -23 6 -23 11 0 6 -27 10 -62 10 l-62 0 34 -25 c19
-14 41 -25 49 -25 8 0 12 -3 8 -6 -3 -3 -29 -1 -59 4 -77 15 -167 22 -143 12
11 -5 34 -9 50 -10 56 -4 -43 -20 -111 -18 -33 1 -65 -1 -70 -3 -5 -3 -43 -2
-84 1 -41 4 -67 7 -57 8 9 1 17 7 17 13 0 7 -32 9 -95 7 -54 -2 -96 1 -98 6
-4 11 -127 12 -175 1 -37 -8 -69 9 -52 30 5 6 7 15 3 18 -3 4 -1 13 6 21 9 11
9 15 -1 19 -9 3 -5 11 12 26 16 14 21 24 13 27 -7 3 -9 12 -6 20 3 7 -2 17
-11 20 -9 3 -16 15 -16 25 0 10 -6 19 -14 19 -24 0 -27 16 -6 40 21 24 27 60
10 60 -5 0 -10 -5 -10 -12 0 -9 -3 -9 -12 0 -7 7 -25 12 -40 12 -17 0 -31 7
-35 15 -7 20 5 34 15 18 4 -7 31 -13 60 -15 33 -2 52 -7 52 -15 0 -7 7 -13 15
-13 16 0 18 14 18 90 0 25 2 37 4 27 3 -9 9 -15 14 -12 5 4 14 -6 19 -20 6
-15 15 -23 21 -19 8 5 8 9 -1 14 -14 9 -5 47 16 67 7 8 18 32 24 53 6 22 16
40 22 40 8 0 9 3 2 10 -12 12 5 80 19 80 9 0 37 25 37 33 0 3 -16 4 -36 3 -43
-4 -64 -20 -46 -38 16 -16 15 -38 -2 -38 -7 0 -19 -6 -25 -14 -7 -8 -22 -11
-38 -8 l-26 5 32 17 c29 14 31 18 17 29 -9 7 -22 11 -30 8 -9 -4 -16 3 -19 20
-7 37 3 63 24 63 28 0 23 19 -7 30 -33 13 -34 13 -34 -4 0 -8 -7 -17 -16 -20
-11 -4 -15 -14 -12 -31 3 -16 -1 -30 -13 -41 -16 -14 -19 -14 -19 -3 0 8 5 20
11 26 7 7 6 12 -5 16 -8 3 -22 0 -30 -8 -8 -8 -21 -15 -28 -15 -8 0 -9 3 -3 8
14 10 18 42 5 42 -16 0 -12 47 6 64 8 9 13 20 10 25 -4 5 -7 27 -8 50 -1 39
-2 40 -18 21 -10 -11 -27 -20 -39 -20 -11 0 -21 -6 -21 -12 0 -7 -7 -2 -16 10
-16 24 -12 58 6 47 14 -8 32 44 26 71 -3 12 -17 24 -30 28 -32 8 -42 36 -16
43 24 7 55 59 40 68 -6 3 -14 -5 -20 -19 -5 -14 -15 -26 -21 -26 -7 0 -8 6 -3
18 4 9 7 36 6 60 -1 23 2 42 8 42 5 0 10 -8 10 -19 0 -12 9 -20 25 -23 15 -3
25 -1 25 6 0 23 -25 46 -55 52 -37 7 -43 13 -25 24 13 8 12 11 -3 23 -17 12
-17 14 -4 26 13 10 19 9 36 -8 33 -33 52 -28 40 11 -13 47 -11 63 10 89 l19
24 20 -22 c28 -33 34 -29 32 20 -2 57 -1 64 9 48 5 -7 14 -10 20 -7 6 4 9 12
6 17 -9 14 57 10 87 -5 25 -13 30 -13 44 2 15 15 15 17 -6 34 -13 10 -20 24
-16 33 6 16 26 21 26 6 0 -4 22 -8 49 -8 44 0 50 2 56 24 8 33 32 39 58 15 25
-23 87 -39 87 -23 0 6 -7 8 -15 5 -10 -4 -13 1 -12 23 1 15 7 32 12 36 6 5 -9
6 -32 3 -26 -4 -43 -2 -43 4 0 5 -7 7 -15 4 -8 -4 -15 -2 -15 2 0 13 -53 12
-63 -1 -7 -10 -37 19 -37 36 0 11 54 16 61 6 3 -4 13 -5 22 -1z m-263 -39 c0
-9 -2 -9 -8 1 -5 7 -16 10 -25 6 -17 -6 -23 6 -11 19 9 9 44 -11 44 -26z
m-150 -1 c10 -16 9 -18 -3 -13 -9 3 -27 -3 -40 -14 -14 -10 -27 -19 -29 -19
-1 0 -3 15 -4 34 0 32 1 34 32 33 19 -1 37 -10 44 -21z m1090 -1 c-7 -9 -15
-13 -19 -10 -3 3 1 10 9 15 21 14 24 12 10 -5z m-710 -23 c0 -4 -6 -14 -12
-21 -11 -10 -9 -11 6 -5 13 5 17 3 15 -5 -3 -7 -8 -12 -12 -12 -4 1 -14 1 -22
1 -8 0 -15 7 -15 16 0 11 -6 14 -20 9 -11 -3 -20 -2 -20 4 0 5 8 11 18 13 36
8 62 7 62 0z m130 -23 c0 -11 -27 -12 -34 0 -3 4 -3 11 0 14 8 8 34 -3 34 -14z
m-258 -31 c-6 -6 -15 -8 -19 -4 -4 4 -1 11 7 16 19 12 27 3 12 -12z m-229 -23
c4 -8 2 -17 -3 -20 -6 -4 -10 3 -10 14 0 25 6 27 13 6z m-78 -167 c-2 -30 -8
-44 -19 -46 -9 -2 -16 -8 -16 -13 0 -5 -4 -9 -10 -9 -5 0 -10 9 -10 20 0 13 5
18 15 14 11 -5 15 1 15 23 0 23 15 53 26 53 1 0 1 -19 -1 -42z m3041 -116
c-13 -12 -17 8 -10 40 l9 33 3 -33 c2 -19 1 -36 -2 -40z m-3027 -31 c22 -19
22 -20 2 -30 -24 -13 -18 -41 9 -41 17 0 16 -3 -3 -43 l-22 -43 -27 25 c-28
24 -37 51 -18 51 6 0 10 -5 10 -11 0 -5 5 -7 10 -4 15 10 12 52 -5 59 -18 7
-19 28 -3 44 16 16 21 15 47 -7z m81 -11 c0 -5 -4 -10 -10 -10 -5 0 -10 5 -10
10 0 6 5 10 10 10 6 0 10 -4 10 -10z m1390 -20 c0 -5 -2 -10 -4 -10 -3 0 -8 5
-11 10 -3 6 -1 10 4 10 6 0 11 -4 11 -10z m-16 -25 c3 -8 1 -15 -4 -15 -6 0
-10 4 -10 9 0 5 -8 12 -17 14 -14 4 -13 5 3 6 12 0 24 -6 28 -14z m86 -38 c0
-19 -1 -19 -20 -2 -21 19 -18 37 5 28 8 -3 15 -14 15 -26z m-28 -50 c3 -6 4
-17 0 -25 -5 -13 -7 -13 -16 0 -6 8 -15 15 -21 16 -5 1 -11 8 -13 16 -2 11 3
13 20 9 13 -4 26 -11 30 -16z m-1552 -21 c0 -2 -9 -6 -20 -9 -11 -3 -18 -1
-14 4 5 9 34 13 34 5z m1430 -8 c0 -4 -4 -8 -9 -8 -6 0 -12 4 -15 8 -3 5 1 9
9 9 8 0 15 -4 15 -9z m100 -30 l35 0 -31 -10 c-25 -8 -37 -7 -60 7 -27 15 -27
16 -4 9 14 -3 41 -6 60 -6z m-5937 -35 c-7 -2 -21 -2 -30 0 -10 3 -4 5 12 5
17 0 24 -2 18 -5z m4461 -68 c-6 -16 -24 -21 -24 -7 0 11 11 22 21 22 5 0 6
-7 3 -15z m-4406 -21 c-9 -9 -21 -13 -27 -9 -16 10 -3 25 22 25 20 0 20 -1 5
-16z m6127 -16 c3 -7 6 -22 8 -33 2 -11 14 -38 28 -60 41 -65 41 -64 20 -58
-11 3 -24 17 -30 32 -5 14 -19 50 -30 79 -12 29 -16 52 -11 52 6 0 13 -6 15
-12z m-1621 -17 c4 -5 0 -12 -6 -14 -10 -4 -9 -8 2 -16 17 -12 1 -15 -18 -3
-7 5 -10 16 -6 25 7 19 20 22 28 8z m1666 -13 c0 -18 -2 -20 -9 -8 -6 8 -7 18
-5 22 9 14 14 9 14 -14z m-1756 -48 c7 -7 3 -10 -12 -10 -12 0 -25 0 -29 -1
-5 0 -9 7 -11 15 -4 17 34 14 52 -4z m1776 10 c0 -5 -4 -10 -10 -10 -5 0 -10
5 -10 10 0 6 5 10 10 10 6 0 10 -4 10 -10z m-1703 -32 c-3 -8 -6 -5 -6 6 -1
11 2 17 5 13 3 -3 4 -12 1 -19z m1652 -113 c0 -5 -6 1 -14 15 -8 14 -14 30
-14 35 0 6 6 -1 14 -15 8 -14 14 -29 14 -35z m81 25 c22 -11 39 -24 38 -28 -2
-9 8 -36 38 -101 14 -29 22 -56 19 -59 -7 -7 -95 89 -95 104 0 6 -7 17 -15 24
-9 7 -13 20 -10 28 3 8 -2 23 -11 33 -22 24 -13 24 36 -1z m-2360 3 c0 -5 -5
-15 -10 -23 -8 -12 -10 -11 -10 8 0 12 5 22 10 22 6 0 10 -3 10 -7z m629 -52
c-13 -11 -26 -17 -29 -14 -6 6 30 33 43 33 5 0 -1 -9 -14 -19z m144 12 c4 -3
-2 -13 -14 -21 -11 -8 -23 -11 -27 -7 -4 4 -1 10 6 12 6 3 10 9 6 14 -6 10 19
12 29 2z m2772 -46 c6 -12 8 -33 4 -47 -7 -25 -10 -22 -14 17 -1 12 -5 28 -8
37 -10 25 7 19 18 -7z m-2908 -19 c-3 -8 -6 -5 -6 6 -1 11 2 17 5 13 3 -3 4
-12 1 -19z m103 -1 c0 -2 -9 -12 -20 -22 -17 -16 -20 -16 -20 -2 0 8 8 18 18
20 9 3 18 5 20 6 1 0 2 -1 2 -2z m50 -7 c12 -8 11 -10 -7 -10 -13 0 -23 5 -23
10 0 13 11 13 30 0z m66 -7 c20 -27 19 -28 -41 -48 -39 -14 -55 -24 -55 -37 0
-10 -2 -18 -4 -18 -2 0 -11 -3 -19 -6 -11 -4 -16 2 -19 18 -3 23 -24 24 -22 1
1 -7 -7 -15 -17 -18 -33 -11 -21 -25 21 -25 22 0 40 -2 40 -4 0 -2 3 -13 7
-23 6 -15 4 -16 -9 -6 -12 11 -21 10 -47 -3 -18 -9 -34 -14 -35 -13 -2 2 -10
19 -19 37 -15 30 -14 32 3 32 11 0 23 13 33 38 14 36 16 37 67 38 45 0 55 4
72 27 23 32 27 33 44 10z m-196 -25 c0 -6 -6 -5 -15 2 -8 7 -15 14 -15 16 0 2
7 1 15 -2 8 -4 15 -11 15 -16z m2918 -63 l1 -20 -9 20 c-5 11 -8 34 -8 50 l0
30 8 -30 c4 -16 8 -39 8 -50z m-2938 40 c0 -8 -2 -15 -4 -15 -2 0 -6 7 -10 15
-3 8 -1 15 4 15 6 0 10 -7 10 -15z m1819 -67 c21 -27 22 -30 6 -27 -11 2 -27
19 -38 37 -24 40 -3 34 32 -10z m1101 11 c0 -10 -4 -19 -10 -19 -5 0 -10 12
-10 26 0 14 4 23 10 19 6 -3 10 -15 10 -26z m-117 -29 c3 -11 1 -20 -4 -20 -5
0 -9 9 -9 20 0 11 2 20 4 20 2 0 6 -9 9 -20z m-3393 -36 c0 -8 -4 -12 -10 -9
-5 3 -10 10 -10 16 0 5 5 9 10 9 6 0 10 -7 10 -16z m3520 -5 c0 -6 -4 -7 -10
-4 -5 3 -10 11 -10 16 0 6 5 7 10 4 6 -3 10 -11 10 -16z m-3360 -8 c0 -22 -25
-45 -40 -36 -13 8 -13 28 2 43 18 18 38 14 38 -7z m2288 -9 c2 -7 -2 -10 -12
-6 -9 3 -16 11 -16 16 0 13 23 5 28 -10z m959 -48 c2 -23 0 -33 -7 -29 -5 3
-11 14 -11 23 -1 9 -5 4 -9 -13 -7 -28 -8 -28 -9 12 -1 25 4 43 12 46 17 6 20
2 24 -39z m-3396 14 c-7 -7 -18 -22 -25 -33 -13 -18 -14 -18 -9 8 4 21 1 27
-13 28 -11 1 -3 5 16 8 41 8 46 7 31 -11z m244 -8 c3 -5 -3 -10 -15 -10 -12 0
-18 5 -15 10 3 6 10 10 15 10 5 0 12 -4 15 -10z m-625 -30 c0 -5 -4 -10 -10
-10 -5 0 -10 5 -10 10 0 6 5 10 10 10 6 0 10 -4 10 -10z m318 -8 c2 -6 2 -13
0 -15 -2 -2 5 -11 15 -21 9 -10 17 -22 17 -27 0 -12 -24 -11 -37 2 -7 7 -12 6
-17 -6 -4 -12 0 -18 14 -22 21 -6 27 -28 10 -38 -8 -5 -8 -11 0 -20 8 -9 6
-14 -5 -19 -11 -4 -15 1 -15 17 0 24 -12 48 -26 50 -14 3 -4 60 13 73 12 8 13
13 4 18 -7 5 -21 0 -32 -10 -10 -9 -19 -12 -19 -6 0 6 -2 16 -5 24 -4 10 6 13
37 12 23 0 44 -6 46 -12z m207 8 c3 -5 1 -10 -4 -10 -6 0 -11 5 -11 10 0 6 2
10 4 10 3 0 8 -4 11 -10z m365 -24 c0 -3 -4 -8 -10 -11 -5 -3 -10 -1 -10 4 0
6 5 11 10 11 6 0 10 -2 10 -4z m-660 -53 c0 -7 5 -13 11 -13 13 0 1 -42 -15
-52 -6 -4 -14 -2 -18 5 -4 7 -8 -7 -8 -30 0 -25 -5 -43 -11 -43 -12 0 -5 54
13 99 13 30 13 28 3 61 -7 24 -7 24 9 5 8 -11 16 -26 16 -32z m-241 21 c-11
-14 -11 -18 2 -28 15 -12 14 -46 -2 -46 -5 0 -9 -11 -9 -25 0 -14 -4 -25 -10
-25 -13 0 -13 33 1 47 7 7 8 20 3 34 -12 35 -11 43 6 51 23 10 24 9 9 -8z m52
-11 c-13 -25 7 -73 31 -73 30 0 19 -33 -12 -35 -14 -1 -29 -3 -35 -5 -19 -5
-35 0 -35 11 0 7 9 9 21 6 21 -6 21 -3 16 44 -7 53 -1 82 14 73 6 -3 6 -12 0
-21z m34 7 c3 -5 1 -10 -4 -10 -6 0 -11 5 -11 10 0 6 2 10 4 10 3 0 8 -4 11
-10z m453 -31 c-2 -51 19 -69 44 -38 17 21 43 17 35 -4 -2 -7 0 -23 5 -36 6
-16 5 -27 -2 -31 -18 -11 0 -42 21 -37 25 7 24 -4 -3 -33 -20 -22 -23 -22 -26
-6 -2 11 -9 15 -19 12 -11 -5 -13 -2 -9 10 4 10 0 15 -12 13 -37 -3 -43 0 -31
20 16 25 5 52 -18 44 -14 -5 -15 -3 -6 7 9 10 6 17 -14 34 -23 20 -24 25 -13
47 13 24 29 39 42 39 5 0 7 -18 6 -41z m72 27 c0 -22 -29 -41 -42 -28 -9 9 -8
12 6 12 12 0 16 5 12 15 -3 9 0 15 9 15 8 0 15 -6 15 -14z m380 -21 c0 -7 7
-15 15 -19 8 -3 15 -11 15 -17 0 -9 -4 -9 -14 0 -10 9 -16 9 -21 1 -4 -7 2
-14 14 -17 21 -5 21 -6 3 -19 -13 -9 -17 -21 -14 -43 3 -24 0 -31 -12 -31 -9
0 -16 5 -16 10 0 6 -7 10 -15 10 -9 0 -15 6 -14 13 3 26 -1 39 -13 35 -15 -5
-41 39 -32 54 3 5 12 7 19 4 7 -2 17 6 23 19 8 17 16 21 36 18 14 -3 26 -11
26 -18z m1930 -2 c0 -13 -3 -13 -15 -3 -8 7 -12 16 -9 21 8 13 24 1 24 -18z
m877 2 c-4 -8 -11 -15 -17 -15 -7 0 -7 6 0 21 13 23 26 19 17 -6z m-3597 0 c0
-8 -4 -15 -10 -15 -5 0 -10 7 -10 15 0 8 5 15 10 15 6 0 10 -7 10 -15z m3640
-57 c0 -100 -9 -137 -31 -133 -11 2 -19 0 -19 -6 0 -5 9 -9 20 -9 11 0 20 -7
20 -15 0 -8 -3 -15 -8 -15 -4 0 -7 -19 -7 -42 0 -37 -3 -43 -20 -40 -15 2 -17
1 -6 -7 8 -5 11 -16 7 -27 -4 -12 -10 -14 -17 -7 -6 6 -7 30 -1 65 7 45 6 55
-5 51 -15 -6 -17 15 -4 36 5 8 5 28 -1 48 -5 19 -6 42 -2 51 4 10 8 24 8 32 1
8 9 14 18 12 9 -1 22 7 28 18 11 20 -3 30 -15 10 -4 -6 -11 -8 -16 -4 -9 5 28
43 44 44 4 0 7 -28 7 -62z m-3165 12 c-3 -5 -12 -10 -18 -10 -7 0 -6 4 3 10
19 12 23 12 15 0z m-530 -60 c3 -5 1 -10 -4 -10 -6 0 -11 5 -11 10 0 6 2 10 4
10 3 0 8 -4 11 -10z m-45 -20 c0 -5 -7 -10 -15 -10 -8 0 -15 5 -15 10 0 6 7
10 15 10 8 0 15 -4 15 -10z m30 -15 c-7 -9 -10 -26 -6 -42 6 -27 6 -27 -9 -9
-25 32 -18 66 13 66 12 0 12 -3 2 -15z m2275 5 c3 -6 -1 -7 -9 -4 -18 7 -21
14 -7 14 6 0 13 -4 16 -10z m-2212 -19 c3 -14 1 -18 -9 -14 -8 3 -14 11 -14
19 0 21 17 17 23 -5z m766 -5 c10 -11 8 -16 -9 -21 -26 -8 -35 -1 -27 20 8 19
21 19 36 1z m2922 -19 c-8 -8 -11 -7 -11 4 0 9 3 19 7 23 4 4 9 2 11 -4 3 -7
-1 -17 -7 -23z m-2873 -12 c-3 -14 -2 -28 3 -31 10 -6 0 -34 -12 -34 -6 0 -8
20 -7 45 2 25 7 45 12 45 4 0 6 -11 4 -25z m927 5 c3 -6 -1 -7 -9 -4 -18 7
-21 14 -7 14 6 0 13 -4 16 -10z m845 -10 c8 -5 11 -10 5 -10 -5 0 -17 5 -25
10 -8 5 -10 10 -5 10 6 0 17 -5 25 -10z m-235 -27 c11 -7 26 -13 33 -13 7 0
20 -7 28 -15 9 -8 23 -15 33 -15 10 0 18 -6 18 -14 0 -10 -5 -11 -16 -6 -9 5
-37 18 -63 30 -27 12 -48 26 -48 31 0 5 -9 9 -20 9 -11 0 -20 4 -20 10 0 11
26 3 55 -17z m30 9 c-3 -3 -11 0 -18 7 -9 10 -8 11 6 5 10 -3 15 -9 12 -12z
m165 8 c12 -8 12 -10 -5 -10 -11 0 -27 5 -35 10 -12 8 -12 10 5 10 11 0 27 -5
35 -10z m-1467 -9 c5 -1 5 -6 1 -12 -3 -6 -15 -8 -26 -6 -11 3 -31 2 -44 -3
-26 -10 -43 4 -20 17 12 7 44 8 89 4z m2609 -26 c-2 -15 -8 -23 -13 -18 -10
10 0 55 11 48 4 -2 5 -16 2 -30z m-2812 16 c0 -12 -20 -25 -27 -18 -7 7 6 27
18 27 5 0 9 -4 9 -9z m993 2 c-7 -2 -19 -2 -25 0 -7 3 -2 5 12 5 14 0 19 -2
13 -5z m-678 -10 c-44 -11 -33 -21 22 -21 87 0 182 -8 191 -17 4 -4 -56 -4
-133 0 -91 5 -143 12 -152 21 -17 16 -2 23 52 22 22 0 31 -2 20 -5z m620 1
c24 -10 0 -22 -32 -16 -18 3 -21 7 -11 13 16 11 22 11 43 3z m-168 -20 c-3 -3
-12 -4 -19 -1 -8 3 -5 6 6 6 11 1 17 -2 13 -5z m228 -4 c4 -6 -6 -10 -22 -9
-25 0 -26 1 -8 9 11 5 21 9 22 9 1 1 5 -3 8 -9z m141 -3 c7 -7 -46 -12 -76 -8
-8 1 -24 2 -35 2 -13 0 -16 2 -7 7 15 10 109 9 118 -1z m579 3 c8 -13 -5 -13
-25 0 -13 8 -13 10 2 10 9 0 20 -4 23 -10z m-1655 -4 c0 -2 -7 -6 -15 -10 -8
-3 -15 -1 -15 4 0 6 7 10 15 10 8 0 15 -2 15 -4z m1408 -14 c15 -10 36 -22 47
-27 37 -14 -3 -16 -51 -2 -30 8 -48 20 -50 30 -3 22 21 22 54 -1z m-1478 -8
c0 -8 -5 -12 -10 -9 -6 4 -8 11 -5 16 9 14 15 11 15 -7z m715 -5 c-22 -4 -56
-8 -75 -7 l-35 1 35 7 c19 4 53 7 75 8 l40 0 -40 -9z m1188 -8 c16 -10 25 -21
19 -24 -5 -4 -24 5 -42 18 -39 29 -19 34 23 6z m878 -14 c-10 -9 -11 -8 -5 6
3 10 9 15 12 12 3 -3 0 -11 -7 -18z m-2268 6 c-7 -2 -21 -2 -30 0 -10 3 -4 5
12 5 17 0 24 -2 18 -5z m884 1 c-3 -3 -12 -4 -19 -1 -8 3 -5 6 6 6 11 1 17 -2
13 -5z m282 -5 c17 -6 31 -15 31 -20 0 -13 -13 -11 -61 11 -48 21 -26 28 30 9z
m-1824 -13 c18 -13 17 -14 -13 -30 -22 -11 -33 -13 -38 -5 -4 7 1 16 10 21 9
5 14 13 11 19 -9 14 8 11 30 -5z m1616 -6 c46 -20 43 -24 -9 -14 -17 3 -33 12
-36 20 -7 18 -6 18 45 -6z m154 -10 c3 -5 17 -10 29 -10 13 0 29 -7 36 -15 7
-8 28 -17 49 -21 46 -7 73 -15 69 -19 -3 -3 -138 19 -188 31 -14 3 -37 14 -50
25 l-25 19 37 0 c20 0 40 -4 43 -10z m-1740 -30 c3 -5 -1 -10 -11 -10 -13 0
-15 -6 -10 -30 7 -36 -11 -41 -20 -6 -8 34 25 72 41 46z m1344 -6 c2 -2 -12
-4 -33 -4 -22 0 -35 4 -31 10 5 9 52 4 64 -6z m666 -54 c3 -5 2 -10 -4 -10 -5
0 -13 5 -16 10 -3 6 -2 10 4 10 5 0 13 -4 16 -10z m819 -25 c-4 -8 -8 -15 -10
-15 -2 0 -4 7 -4 15 0 8 4 15 10 15 5 0 7 -7 4 -15z m22 -11 c-4 -9 -9 -15
-11 -12 -3 3 -3 13 1 22 4 9 9 15 11 12 3 -3 3 -13 -1 -22z m-186 -43 c0 -10
-7 -25 -17 -32 -14 -12 -17 -12 -21 0 -3 10 -10 8 -24 -10 -19 -24 -19 -24 -2
13 16 35 19 37 35 22 16 -15 17 -14 12 5 -3 12 -1 21 6 21 6 0 11 -8 11 -19z
m-4165 -20 c72 -11 166 -29 210 -40 44 -11 83 -17 86 -15 4 2 9 0 11 -6 1 -5
21 -12 44 -14 86 -8 284 -142 284 -191 0 -10 -44 17 -98 62 -169 137 -497 211
-952 215 -145 1 -177 3 -125 9 120 12 400 2 540 -20z m-662 2 c-13 -2 -33 -2
-45 0 -13 2 -3 4 22 4 25 0 35 -2 23 -4z m1852 -13 c3 -5 1 -10 -4 -10 -6 0
-11 5 -11 10 0 6 2 10 4 10 3 0 8 -4 11 -10z m3120 -36 c-8 -16 -15 -24 -15
-17 0 18 24 67 27 56 2 -5 -3 -23 -12 -39z m-5138 30 c-3 -3 -12 -4 -19 -1 -8
3 -5 6 6 6 11 1 17 -2 13 -5z m-112 -24 c-38 -11 -71 -17 -73 -15 -6 6 91 34
118 33 14 0 -6 -8 -45 -18z m4802 -16 c-3 -3 -12 -4 -19 -1 -8 3 -5 6 6 6 11
1 17 -2 13 -5z m-4888 -8 c-7 -7 -129 -55 -129 -50 0 8 96 53 114 54 11 0 17
-2 15 -4z m1661 -22 c0 -2 -9 0 -20 6 -11 6 -20 13 -20 16 0 2 9 0 20 -6 11
-6 20 -13 20 -16z m-2172 -86 c22 -19 14 -48 -13 -48 -14 0 -25 6 -26 13 0 9
-2 9 -5 0 -7 -17 -34 -4 -34 16 0 10 2 20 4 22 9 9 62 7 74 -3z m5772 -18
c-27 -39 -34 -39 -12 0 9 16 21 30 25 30 5 0 -1 -13 -13 -30z m-5762 -78 c4
-23 -24 -43 -37 -26 -3 5 -15 9 -26 9 -29 0 -25 28 5 36 39 11 55 6 58 -19z
m4351 0 c17 -10 28 -22 23 -27 -4 -4 1 -5 10 -2 15 5 16 4 5 -13 -6 -11 -19
-18 -27 -15 -8 2 -27 7 -42 11 -16 3 -28 10 -28 15 0 5 -10 9 -23 9 -22 0 -47
16 -47 30 0 16 100 10 129 -8z m-2143 -63 c8 -17 13 -36 11 -42 -3 -10 -47 62
-47 78 0 13 21 -8 36 -36z m1948 -52 c-12 -7 -19 -17 -17 -24 2 -6 -1 -14 -6
-18 -6 -3 -11 0 -11 9 0 29 13 46 34 46 l21 -1 -21 -12z m175 -43 l54 -32 -27
-25 c-23 -22 -141 -67 -175 -67 -11 0 -11 4 2 18 15 16 34 96 29 116 -2 5 -1
15 2 23 8 19 48 7 115 -33z m-4100 -319 c17 -107 43 -211 86 -334 34 -96 51
-133 98 -210 11 -19 15 -31 9 -27 -7 4 -26 31 -43 59 -17 29 -40 67 -51 84
-11 18 -21 38 -22 45 -5 22 -35 84 -36 72 0 -22 31 -99 71 -177 45 -86 47
-116 3 -41 -107 182 -187 513 -182 757 0 51 3 77 5 60 7 -59 30 -31 34 42 1
17 5 -33 9 -110 4 -77 13 -176 19 -220z m2031 233 c10 -98 6 -143 -11 -116 -5
7 -9 36 -9 63 0 28 -6 75 -14 105 -15 59 -12 80 10 58 8 -8 18 -54 24 -110z
m1844 101 c-3 -5 -10 -7 -15 -3 -5 3 -7 10 -3 15 3 5 10 7 15 3 5 -3 7 -10 3
-15z m-43 -2 c-6 -8 -8 -17 -4 -20 3 -4 1 -7 -5 -7 -13 0 -16 22 -5 33 12 13
25 7 14 -6z m-2464 -17 c1 -11 -4 -20 -13 -20 -14 0 -19 21 -7 33 11 12 19 7
20 -13z m2567 -28 c-4 -9 -6 -22 -5 -28 0 -6 -6 -17 -14 -24 -8 -7 -15 -19
-15 -26 0 -8 -4 -14 -10 -14 -13 0 -13 13 1 27 6 6 11 27 11 47 0 23 6 39 17
45 19 11 26 -1 15 -27z m-959 -15 c4 5 5 0 2 -9 -4 -13 -1 -18 10 -18 9 0 14
-2 11 -5 -3 -3 -19 -2 -36 1 -33 7 -39 23 -25 60 6 16 8 15 18 -9 6 -15 15
-24 20 -20z m855 13 c0 -5 -4 -10 -10 -10 -5 0 -10 5 -10 10 0 6 5 10 10 10 6
0 10 -4 10 -10z m-2460 -4 c0 -2 -7 -9 -15 -16 -12 -10 -15 -10 -15 4 0 9 7
16 15 16 8 0 15 -2 15 -4z m2498 -54 c2 -7 -2 -10 -12 -6 -9 3 -16 11 -16 16
0 13 23 5 28 -10z m-830 -22 c-11 -18 -28 -27 -28 -16 0 16 14 36 26 36 12 0
12 -4 2 -20z m2392 -20 c0 -5 -5 -10 -11 -10 -5 0 -7 5 -4 10 3 6 8 10 11 10
2 0 4 -4 4 -10z m-2661 -14 c8 -10 9 -16 2 -21 -14 -8 -53 13 -46 26 9 13 31
11 44 -5z m-686 -198 c-16 -23 -32 -51 -36 -60 -4 -10 -11 -18 -17 -18 -15 0
-12 10 13 44 13 17 30 45 38 63 8 19 17 29 22 24 5 -5 -3 -28 -20 -53z m3204
-245 c-3 -10 -5 -4 -5 12 0 17 2 24 5 18 2 -7 2 -21 0 -30z m-1407 -147 c0 -2
-7 -6 -15 -10 -8 -3 -15 -1 -15 4 0 6 7 10 15 10 8 0 15 -2 15 -4z m-1337
-1313 c-7 -2 -19 -2 -25 0 -7 3 -2 5 12 5 14 0 19 -2 13 -5z m-33 -33 c0 -27
-19 -35 -38 -16 -15 14 -15 17 3 30 23 17 35 12 35 -14z m-4012 -569 c-13 -21
-28 -19 -28 5 0 8 9 14 20 14 17 0 19 -3 8 -19z m4069 -23 c-3 -8 -6 -5 -6 6
-1 11 2 17 5 13 3 -3 4 -12 1 -19z m-242 -77 c-7 -22 -25 -29 -25 -11 0 12 23
40 28 35 2 -2 1 -13 -3 -24z m-4008 -267 c-3 -3 -12 -4 -19 -1 -8 3 -5 6 6 6
11 1 17 -2 13 -5z m4033 -368 c0 -3 -4 -8 -10 -11 -5 -3 -10 -1 -10 4 0 6 5
11 10 11 6 0 10 -2 10 -4z m-4485 -96 c3 -5 1 -10 -4 -10 -6 0 -11 5 -11 10 0
6 2 10 4 10 3 0 8 -4 11 -10z m4695 -221 c0 -11 -4 -17 -10 -14 -5 3 -10 13
-10 21 0 8 5 14 10 14 6 0 10 -9 10 -21z m58 -41 c2 -8 -6 -26 -17 -39 l-20
-24 -1 23 c0 13 4 21 9 17 5 -3 12 -1 16 5 3 6 -1 13 -9 16 -9 3 -13 10 -10
16 8 13 28 4 32 -14z m122 -22 c0 -3 -4 -8 -10 -11 -5 -3 -10 -1 -10 4 0 6 5
11 10 11 6 0 10 -2 10 -4z m-473 -66 c0 -26 -4 -30 -26 -30 -22 1 -24 2 -10
13 8 7 18 20 22 30 9 25 14 21 14 -13z m90 -132 c-3 -8 -6 -5 -6 6 -1 11 2 17
5 13 3 -3 4 -12 1 -19z m899 -21 c1 -19 -2 -23 -20 -20 -12 3 -28 13 -34 24
-11 17 -9 19 20 19 28 0 33 -4 34 -23z m-76 -59 c0 -3 -9 -4 -19 -1 -16 4 -17
8 -8 18 11 12 26 3 27 -17z m-30 -12 c0 -2 -7 -7 -16 -10 -8 -3 -12 -2 -9 4 6
10 25 14 25 6z m-190 -36 c0 -5 -4 -10 -10 -10 -5 0 -10 5 -10 10 0 6 5 10 10
10 6 0 10 -4 10 -10z m-303 -346 c-3 -3 -12 -4 -19 -1 -8 3 -5 6 6 6 11 1 17
-2 13 -5z m153 -13 c25 -47 8 -52 -65 -17 -39 19 -45 25 -26 25 13 1 29 -6 36
-16 7 -9 19 -14 29 -10 21 8 21 24 -1 30 -17 4 -17 5 -1 6 10 0 22 -8 28 -18z
m37 13 c-3 -3 -12 -4 -19 -1 -8 3 -5 6 6 6 11 1 17 -2 13 -5z m23 -44 c0 -5
-7 -10 -15 -10 -8 0 -15 5 -15 10 0 6 7 10 15 10 8 0 15 -4 15 -10z m50 -35
c7 -8 8 -15 2 -15 -5 0 -15 7 -22 15 -7 8 -8 15 -2 15 5 0 15 -7 22 -15z m-80
-25 c8 -5 11 -12 8 -16 -10 -9 -38 3 -38 16 0 12 10 13 30 0z m-115 -100 c14
-5 23 -15 20 -20 -5 -8 -11 -7 -20 0 -8 7 -19 9 -25 5 -13 -8 -32 4 -25 16 8
12 17 11 50 -1z m39 -66 c5 -12 2 -15 -10 -10 -8 3 -25 6 -35 6 -11 0 -17 5
-14 10 10 16 52 12 59 -6z m-64 -35 c0 -14 -16 -11 -29 5 -10 12 -8 13 8 9 12
-3 21 -9 21 -14z"/>
<path d="M6010 7065 c-11 -13 -10 -14 4 -9 9 3 16 10 16 15 0 13 -6 11 -20 -6z"/>
<path d="M5730 7060 c0 -5 5 -10 10 -10 6 0 10 5 10 10 0 6 -4 10 -10 10 -5 0
-10 -4 -10 -10z"/>
<path d="M6020 7038 c0 -7 9 -14 20 -15 11 -1 20 3 20 9 0 6 -3 8 -7 5 -3 -4
-12 -2 -20 4 -10 9 -13 8 -13 -3z"/>
<path d="M5970 7020 c-10 -6 -7 -10 13 -15 37 -10 54 -1 25 12 -14 6 -31 8
-38 3z"/>
<path d="M5880 7016 c0 -2 7 -6 15 -10 8 -3 15 -1 15 4 0 6 -7 10 -15 10 -8 0
-15 -2 -15 -4z"/>
<path d="M5336 6963 c-12 -12 -6 -43 9 -43 8 0 15 9 15 19 0 21 -13 34 -24 24z"/>
<path d="M6205 6950 c3 -5 8 -10 11 -10 2 0 4 5 4 10 0 6 -5 10 -11 10 -5 0
-7 -4 -4 -10z"/>
<path d="M6220 6916 c0 -2 8 -10 18 -17 15 -13 16 -12 3 4 -13 16 -21 21 -21
13z"/>
<path d="M5356 6855 c-3 -8 -1 -15 4 -15 6 0 10 7 10 15 0 8 -2 15 -4 15 -2 0
-6 -7 -10 -15z"/>
<path d="M6281 6814 c0 -11 3 -14 6 -6 3 7 2 16 -1 19 -3 4 -6 -2 -5 -13z"/>
<path d="M5380 6804 c0 -8 5 -12 10 -9 6 3 10 10 10 16 0 5 -4 9 -10 9 -5 0
-10 -7 -10 -16z"/>
<path d="M5231 6776 c-7 -8 -14 -27 -15 -41 0 -14 -5 -25 -9 -25 -5 0 -5 -5
-2 -10 5 -8 11 -7 21 1 7 6 11 15 8 20 -3 5 0 18 6 29 15 28 8 47 -9 26z"/>
<path d="M6315 6770 c-3 -5 -1 -10 4 -10 6 0 11 5 11 10 0 6 -2 10 -4 10 -3 0
-8 -4 -11 -10z"/>
<path d="M5310 6750 c0 -5 5 -10 10 -10 6 0 10 5 10 10 0 6 -4 10 -10 10 -5 0
-10 -4 -10 -10z"/>
<path d="M6310 6706 c0 -2 7 -9 15 -16 9 -7 15 -8 15 -2 0 5 -7 12 -15 16 -8
3 -15 4 -15 2z"/>
<path d="M5320 6690 c0 -5 5 -10 10 -10 6 0 10 5 10 10 0 6 -4 10 -10 10 -5 0
-10 -4 -10 -10z"/>
<path d="M5375 6680 c3 -5 8 -10 11 -10 2 0 4 5 4 10 0 6 -5 10 -11 10 -5 0
-7 -4 -4 -10z"/>
<path d="M6255 6660 c-3 -5 -1 -10 4 -10 6 0 11 5 11 10 0 6 -2 10 -4 10 -3 0
-8 -4 -11 -10z"/>
<path d="M5310 6599 c0 -5 5 -7 10 -4 6 3 10 8 10 11 0 2 -4 4 -10 4 -5 0 -10
-5 -10 -11z"/>
<path d="M6373 6560 c-3 -11 -12 -20 -19 -20 -8 0 -14 -5 -14 -11 0 -6 7 -9
15 -5 8 3 18 -2 23 -11 8 -14 10 -13 15 1 5 11 3 15 -5 10 -8 -5 -9 2 -5 24 7
35 -2 45 -10 12z"/>
<path d="M6405 6570 c3 -5 8 -10 11 -10 2 0 4 5 4 10 0 6 -5 10 -11 10 -5 0
-7 -4 -4 -10z"/>
<path d="M5310 6510 c-12 -8 -11 -10 8 -10 12 0 22 5 22 10 0 13 -11 13 -30 0z"/>
<path d="M5500 6510 c0 -5 5 -10 10 -10 6 0 10 5 10 10 0 6 -4 10 -10 10 -5 0
-10 -4 -10 -10z"/>
<path d="M6308 6493 c7 -3 16 -2 19 1 4 3 -2 6 -13 5 -11 0 -14 -3 -6 -6z"/>
<path d="M6394 6472 c3 -5 0 -13 -6 -15 -9 -4 -10 -6 -1 -6 17 -1 25 16 12 25
-7 4 -9 3 -5 -4z"/>
<path d="M6432 6440 c0 -14 2 -19 5 -12 2 6 2 18 0 25 -3 6 -5 1 -5 -13z"/>
<path d="M5260 6429 c0 -5 5 -7 10 -4 6 3 10 8 10 11 0 2 -4 4 -10 4 -5 0 -10
-5 -10 -11z"/>
<path d="M5320 6418 c0 -6 -11 -23 -25 -40 -31 -37 -32 -52 -3 -36 55 32 79
73 47 81 -10 3 -19 1 -19 -5z"/>
<path d="M6426 6385 c8 -35 21 -52 31 -40 5 4 2 10 -5 12 -6 3 -10 8 -7 12 2
5 -2 17 -10 27 -14 18 -15 17 -9 -11z"/>
<path d="M5420 6371 c0 -5 7 -11 15 -15 9 -3 15 0 15 9 0 8 -7 15 -15 15 -8 0
-15 -4 -15 -9z"/>
<path d="M6590 6369 c0 -5 5 -7 10 -4 6 3 10 8 10 11 0 2 -4 4 -10 4 -5 0 -10
-5 -10 -11z"/>
<path d="M5265 6309 c-4 -6 -5 -13 -2 -16 7 -7 27 6 27 18 0 12 -17 12 -25 -2z"/>
<path d="M6640 6304 c0 -8 5 -12 10 -9 6 3 10 10 10 16 0 5 -4 9 -10 9 -5 0
-10 -7 -10 -16z"/>
<path d="M5470 6291 c0 -5 4 -12 9 -15 5 -3 7 -16 3 -29 -5 -19 -4 -20 11 -8
20 16 16 55 -6 59 -10 2 -17 -1 -17 -7z"/>
<path d="M6635 6269 c-16 -10 -26 -19 -21 -19 5 0 3 -7 -4 -15 -17 -20 -1 -19
30 3 14 9 26 25 26 35 1 9 1 17 0 16 0 0 -14 -9 -31 -20z"/>
<path d="M5433 6253 c-21 -7 -15 -20 10 -25 15 -3 24 0 24 8 0 15 -17 23 -34
17z"/>
<path d="M5393 6213 c-20 -7 -15 -23 7 -23 11 0 20 4 20 9 0 13 -12 19 -27 14z"/>
<path d="M6569 6184 c-22 -25 -22 -26 -3 -16 12 6 24 18 28 27 8 21 3 19 -25
-11z"/>
<path d="M5513 6153 c-20 -7 -15 -23 7 -23 11 0 20 4 20 9 0 13 -12 19 -27 14z"/>
<path d="M6690 6140 c0 -5 5 -10 10 -10 6 0 10 5 10 10 0 6 -4 10 -10 10 -5 0
-10 -4 -10 -10z"/>
<path d="M6490 6128 c-14 -6 -20 -12 -13 -15 7 -2 23 3 35 11 25 18 15 20 -22
4z"/>
<path d="M5545 6080 c3 -5 12 -7 20 -3 21 7 19 13 -6 13 -11 0 -18 -4 -14 -10z"/>
<path d="M5485 6047 c-4 -10 -5 -21 -1 -24 10 -10 18 4 13 24 -4 17 -4 17 -12
0z"/>
<path d="M5506 5964 c-4 -10 -2 -22 3 -27 7 -7 13 -5 17 7 4 10 2 22 -3 27 -7
7 -13 5 -17 -7z"/>
<path d="M5485 5880 c-18 -8 -17 -9 8 -9 15 -1 27 4 27 9 0 12 -8 12 -35 0z"/>
<path d="M5365 5870 c-3 -5 -1 -10 4 -10 6 0 11 5 11 10 0 6 -2 10 -4 10 -3 0
-8 -4 -11 -10z"/>
<path d="M5406 5873 c-11 -12 -6 -23 10 -23 10 0 14 -5 10 -15 -6 -17 13 -29
38 -23 11 2 6 11 -18 35 -19 17 -37 29 -40 26z"/>
<path d="M6528 5793 c7 -3 16 -2 19 1 4 3 -2 6 -13 5 -11 0 -14 -3 -6 -6z"/>
<path d="M6610 5770 c0 -5 5 -10 11 -10 5 0 7 5 4 10 -3 6 -8 10 -11 10 -2 0
-4 -4 -4 -10z"/>
<path d="M6645 5750 c3 -5 11 -10 16 -10 6 0 7 5 4 10 -3 6 -11 10 -16 10 -6
0 -7 -4 -4 -10z"/>
<path d="M5420 5740 c0 -5 7 -10 16 -10 8 0 12 5 9 10 -3 6 -10 10 -16 10 -5
0 -9 -4 -9 -10z"/>
<path d="M6477 5729 c7 -7 15 -10 18 -7 3 3 -2 9 -12 12 -14 6 -15 5 -6 -5z"/>
<path d="M6424 5711 c3 -5 16 -11 28 -14 22 -6 22 -5 4 8 -22 17 -40 20 -32 6z"/>
<path d="M6708 5708 c6 -6 18 -8 28 -6 14 3 12 5 -9 10 -19 3 -25 2 -19 -4z"/>
<path d="M5370 5691 c0 -6 5 -13 10 -16 6 -3 10 1 10 9 0 9 -4 16 -10 16 -5 0
-10 -4 -10 -9z"/>
<path d="M5435 5690 c3 -5 8 -10 11 -10 2 0 4 5 4 10 0 6 -5 10 -11 10 -5 0
-7 -4 -4 -10z"/>
<path d="M5675 5640 c3 -5 8 -10 11 -10 2 0 4 5 4 10 0 6 -5 10 -11 10 -5 0
-7 -4 -4 -10z"/>
<path d="M5350 5621 c0 -5 7 -14 15 -21 8 -7 15 -18 15 -25 0 -7 7 -15 15 -19
8 -3 15 -1 15 4 0 6 8 10 18 10 11 1 7 6 -13 17 -16 9 -34 22 -38 29 -9 16
-27 19 -27 5z"/>
<path d="M6100 5610 c0 -5 5 -10 11 -10 5 0 7 5 4 10 -3 6 -8 10 -11 10 -2 0
-4 -4 -4 -10z"/>
<path d="M5618 5593 c6 -2 18 -2 25 0 6 3 1 5 -13 5 -14 0 -19 -2 -12 -5z"/>
<path d="M6180 5580 c8 -5 20 -10 25 -10 6 0 3 5 -5 10 -8 5 -19 10 -25 10 -5
0 -3 -5 5 -10z"/>
<path d="M6487 5579 c7 -7 15 -10 18 -7 3 3 -2 9 -12 12 -14 6 -15 5 -6 -5z"/>
<path d="M5335 5571 c-3 -5 -1 -12 5 -16 5 -3 10 1 10 9 0 18 -6 21 -15 7z"/>
<path d="M5485 5570 c3 -5 16 -10 28 -10 18 0 19 2 7 10 -20 13 -43 13 -35 0z"/>
<path d="M6230 5570 c-11 -7 -9 -11 13 -19 39 -15 57 -13 29 2 -12 7 -19 16
-16 20 11 10 -8 8 -26 -3z"/>
<path d="M5201 5664 c0 -11 3 -14 6 -6 3 7 2 16 -1 19 -3 4 -6 -2 -5 -13z"/>
<path d="M3898 9403 c7 -3 16 -2 19 1 4 3 -2 6 -13 5 -11 0 -14 -3 -6 -6z"/>
<path d="M5570 9350 c0 -5 5 -10 10 -10 6 0 10 5 10 10 0 6 -4 10 -10 10 -5 0
-10 -4 -10 -10z"/>
<path d="M3585 9330 c-55 -10 -130 -46 -112 -53 8 -3 32 3 52 14 20 11 42 18
48 16 7 -3 1 -9 -13 -15 -14 -6 -20 -11 -13 -11 6 -1 24 4 40 11 29 11 37 14
62 16 11 2 11 5 1 17 -7 8 -15 14 -19 14 -3 -1 -24 -5 -46 -9z"/>
<path d="M6298 9333 c7 -3 16 -2 19 1 4 3 -2 6 -13 5 -11 0 -14 -3 -6 -6z"/>
<path d="M3174 9265 c-54 -42 -66 -58 -26 -35 9 5 30 14 45 20 16 5 26 14 22
19 -3 5 4 12 15 16 20 6 28 25 11 25 -5 0 -35 -20 -67 -45z"/>
<path d="M4513 9285 c12 -13 24 -19 26 -13 2 6 -4 17 -15 25 -29 21 -34 15
-11 -12z"/>
<path d="M6485 9296 c17 -7 34 -11 39 -8 12 7 -21 20 -49 21 -15 0 -12 -3 10
-13z"/>
<path d="M6549 9276 c7 -8 21 -12 32 -9 16 5 18 8 7 14 -7 5 -21 9 -32 9 -15
0 -16 -3 -7 -14z"/>
<path d="M3385 9265 l-30 -13 30 -1 c17 0 39 6 49 14 20 15 20 15 0 15 -10 -1
-32 -7 -49 -15z"/>
<path d="M5186 9268 c9 -13 -19 -20 -28 -7 -7 10 -8 8 -5 -8 3 -13 2 -23 -3
-23 -4 0 -10 -9 -13 -20 -4 -15 7 -9 44 22 27 23 49 42 49 42 0 1 -11 1 -24 1
-13 0 -22 -3 -20 -7z"/>
<path d="M6630 9260 c8 -5 22 -10 30 -10 13 0 13 1 0 10 -8 5 -22 10 -30 10
-13 0 -13 -1 0 -10z"/>
<path d="M3450 9239 c14 -13 27 -21 28 -16 2 4 12 7 23 7 10 0 19 5 19 10 0 6
-13 10 -29 10 -16 0 -38 3 -48 7 -13 5 -12 0 7 -18z"/>
<path d="M5050 9246 c0 -10 28 -13 41 -5 10 6 7 9 -13 9 -16 0 -28 -2 -28 -4z"/>
<path d="M4996 9231 c-12 -5 -15 -10 -9 -14 6 -4 16 0 23 8 14 17 13 17 -14 6z"/>
<path d="M6727 9221 c24 -23 33 -26 33 -13 0 5 -12 14 -27 21 l-28 13 22 -21z"/>
<path d="M3389 9203 c-13 -17 -13 -17 6 -3 11 8 22 16 24 17 2 2 0 3 -6 3 -6
0 -17 -8 -24 -17z"/>
<path d="M4950 9210 c-8 -5 -12 -12 -9 -15 4 -3 12 1 19 10 14 17 11 19 -10 5z"/>
<path d="M5260 9188 c0 -9 -13 -21 -30 -27 -28 -9 -42 -31 -20 -31 6 0 10 5
10 10 0 6 9 10 20 10 11 0 20 5 20 11 0 5 4 8 9 5 5 -4 8 1 7 9 -3 21 -16 31
-16 13z"/>
<path d="M6823 9168 c10 -16 14 -28 10 -28 -5 0 0 -5 10 -11 31 -18 29 -3 -5
32 -28 29 -30 30 -15 7z"/>
<path d="M4871 9144 c0 -11 3 -14 6 -6 3 7 2 16 -1 19 -3 4 -6 -2 -5 -13z"/>
<path d="M4900 9087 c0 -18 26 -77 35 -77 5 0 -11 55 -24 77 -10 17 -10 17
-11 0z"/>
<path d="M7490 8495 c0 -5 11 -23 25 -41 14 -18 28 -46 31 -61 4 -18 12 -29
23 -29 16 0 15 3 -3 33 -30 48 -76 107 -76 98z"/>
<path d="M1323 7343 c-21 -8 -15 -33 7 -33 13 0 20 -7 20 -20 0 -11 4 -20 9
-20 5 0 4 17 -1 40 -11 40 -13 43 -35 33z"/>
<path d="M8030 7280 c0 -5 7 -7 15 -4 8 4 15 8 15 10 0 2 -7 4 -15 4 -8 0 -15
-4 -15 -10z"/>
<path d="M8170 6859 c0 -5 5 -7 10 -4 6 3 10 8 10 11 0 2 -4 4 -10 4 -5 0 -10
-5 -10 -11z"/>
<path d="M580 6260 c0 -11 5 -20 10 -20 6 0 10 9 10 20 0 11 -4 20 -10 20 -5
0 -10 -9 -10 -20z"/>
<path d="M8205 6031 c-3 -5 -1 -12 5 -16 5 -3 10 1 10 9 0 18 -6 21 -15 7z"/>
<path d="M8234 5859 c3 -17 6 -37 7 -43 1 -15 17 25 18 45 1 9 -6 20 -15 23
-14 5 -16 1 -10 -25z"/>
<path d="M8261 5695 c-1 -49 2 -65 9 -55 12 18 12 78 0 105 -6 14 -9 -2 -9
-50z"/>
<path d="M8168 5620 c-3 -17 -1 -33 4 -36 4 -3 8 11 8 30 0 44 -6 47 -12 6z"/>
<path d="M625 5530 c-3 -5 -1 -10 4 -10 6 0 11 5 11 10 0 6 -2 10 -4 10 -3 0
-8 -4 -11 -10z"/>
<path d="M4963 5495 c0 -8 4 -15 8 -15 4 0 9 7 13 15 3 9 0 15 -8 15 -7 0 -13
-7 -13 -15z"/>
<path d="M6543 5423 c20 -2 54 -2 75 0 20 2 3 4 -38 4 -41 0 -58 -2 -37 -4z"/>
<path d="M6628 5393 c7 -3 16 -2 19 1 4 3 -2 6 -13 5 -11 0 -14 -3 -6 -6z"/>
<path d="M5030 5365 c0 -8 5 -15 10 -15 6 0 10 7 10 15 0 8 -4 15 -10 15 -5 0
-10 -7 -10 -15z"/>
<path d="M4973 5335 c14 -30 27 -33 27 -6 0 10 -7 22 -16 25 -23 9 -23 8 -11
-19z"/>
<path d="M5003 5231 c2 -36 17 -72 17 -42 0 7 9 9 27 5 25 -7 26 -6 13 9 -31
34 -40 46 -40 57 0 5 -4 10 -10 10 -5 0 -8 -18 -7 -39z"/>
<path d="M6750 5250 c0 -6 8 -13 18 -16 9 -3 25 -10 34 -15 9 -5 35 -12 58
-15 38 -6 40 -5 40 20 0 19 -5 26 -20 26 -12 0 -20 -7 -20 -16 0 -9 -6 -14
-12 -11 -7 2 -12 11 -10 21 2 13 -6 16 -43 16 -25 0 -45 -5 -45 -10z"/>
<path d="M4976 5228 c-3 -13 -1 -27 4 -32 7 -7 10 1 10 22 0 37 -5 41 -14 10z"/>
<path d="M6704 5235 c11 -8 22 -12 25 -9 6 6 -19 24 -34 24 -5 -1 -1 -7 9 -15z"/>
<path d="M6948 5203 c7 -3 16 -2 19 1 4 3 -2 6 -13 5 -11 0 -14 -3 -6 -6z"/>
<path d="M7096 5201 c-8 -13 2 -18 49 -25 22 -3 31 -3 20 1 -10 3 -29 12 -41
20 -14 9 -24 10 -28 4z"/>
<path d="M6220 5190 c0 -15 31 -25 39 -12 3 6 22 12 41 15 24 3 18 4 -22 5
-34 1 -58 -2 -58 -8z"/>
<path d="M6390 5190 c0 -5 7 -7 15 -4 8 4 15 8 15 10 0 2 -7 4 -15 4 -8 0 -15
-4 -15 -10z"/>
<path d="M5160 5179 c0 -5 5 -7 10 -4 6 3 10 8 10 11 0 2 -4 4 -10 4 -5 0 -10
-5 -10 -11z"/>
<path d="M4930 5167 c0 -10 7 -17 16 -17 8 0 13 -4 10 -8 -2 -4 -1 -14 5 -22
7 -12 9 -11 9 6 0 11 -9 29 -20 39 -18 16 -20 16 -20 2z"/>
<path d="M5030 5141 c0 -6 5 -13 10 -16 6 -3 10 1 10 9 0 9 -4 16 -10 16 -5 0
-10 -4 -10 -9z"/>
<path d="M7269 5136 c9 -10 10 -16 2 -16 -18 0 -13 -22 12 -48 14 -16 18 -26
10 -29 -7 -2 -9 -11 -6 -19 3 -7 -2 -17 -11 -20 -23 -9 -20 -22 13 -55 30 -30
65 -42 42 -15 -9 10 -9 16 -1 21 8 5 6 13 -5 25 -14 16 -15 19 -2 27 15 8 87
97 87 107 0 2 -26 10 -57 16 -32 6 -67 14 -78 17 -17 5 -18 4 -6 -11z"/>
<path d="M6958 5133 c7 -3 16 -2 19 1 4 3 -2 6 -13 5 -11 0 -14 -3 -6 -6z"/>
<path d="M7172 5054 c10 -10 20 -15 24 -12 3 4 -5 12 -18 18 -22 12 -22 12 -6
-6z"/>
<path d="M5133 5011 c0 -11 5 -17 9 -15 11 7 10 34 -1 34 -6 0 -9 -9 -8 -19z"/>
<path d="M7339 4870 c-13 -8 -15 -18 -8 -63 26 -162 34 -294 23 -369 -5 -43
-7 -78 -2 -78 30 0 39 294 13 450 -4 25 -8 51 -8 58 0 6 -1 12 -1 12 -1 0 -8
-5 -17 -10z"/>
<path d="M5096 4551 c-3 -4 1 -17 9 -27 8 -10 15 -27 15 -36 0 -21 10 -23 33
-5 14 11 14 16 2 45 -14 31 -46 44 -59 23z"/>
<path d="M5147 4443 c-6 -10 7 -45 16 -44 22 3 27 -1 27 -19 0 -12 8 -33 17
-47 l17 -26 7 24 c7 30 -6 67 -33 97 -22 22 -43 28 -51 15z"/>
<path d="M6400 4050 c0 -5 5 -10 11 -10 5 0 7 5 4 10 -3 6 -8 10 -11 10 -2 0
-4 -4 -4 -10z"/>
<path d="M6080 4006 c0 -2 9 -6 20 -9 11 -3 18 -1 14 4 -5 9 -34 13 -34 5z"/>
<path d="M5266 3957 c3 -10 9 -15 12 -12 3 3 0 11 -7 18 -10 9 -11 8 -5 -6z"/>
<path d="M5286 3917 c3 -10 9 -15 12 -12 3 3 0 11 -7 18 -10 9 -11 8 -5 -6z"/>
<path d="M5386 3889 c3 -23 11 -59 18 -80 17 -50 0 -43 -43 17 -42 57 -61 58
-21 0 16 -25 30 -48 31 -53 0 -12 246 -193 262 -193 6 0 0 12 -14 27 -13 14
-18 23 -10 18 9 -5 12 -4 7 3 -3 5 0 13 6 15 7 3 -2 8 -19 12 -18 4 -31 11
-28 15 7 11 -20 31 -30 22 -5 -4 -6 -2 -2 3 3 6 -10 28 -29 50 -19 22 -55 73
-80 113 -25 39 -47 72 -49 72 -2 0 -2 -19 1 -41z"/>
<path d="M6060 3730 c0 -5 5 -10 10 -10 6 0 10 5 10 10 0 6 -4 10 -10 10 -5 0
-10 -4 -10 -10z"/>
<path d="M6086 3645 c4 -8 15 -15 25 -15 10 0 19 7 19 15 0 9 -9 15 -25 15
-18 0 -23 -4 -19 -15z"/>
<path d="M6210 3650 c0 -5 4 -10 9 -10 6 0 13 5 16 10 3 6 -1 10 -9 10 -9 0
-16 -4 -16 -10z"/>
<path d="M5692 3624 c10 -10 20 -15 24 -12 3 4 -5 12 -18 18 -22 12 -22 12 -6
-6z"/>
<path d="M5853 3616 c15 -15 124 -51 197 -64 81 -16 239 -23 285 -13 32 7 35
9 13 10 -16 0 -37 10 -48 21 -24 24 -50 26 -50 4 0 -11 -6 -14 -22 -8 -13 4
-36 7 -51 5 -17 -1 -26 3 -22 9 3 6 -1 17 -9 26 -15 14 -16 14 -16 -5 0 -12
-6 -21 -16 -21 -8 0 -12 5 -9 10 3 6 1 10 -5 10 -6 0 -8 5 -5 10 6 9 -28 16
-50 10 -5 -2 -17 -3 -25 -2 -8 0 -52 3 -97 5 -64 4 -80 3 -70 -7z"/>
<path d="M5859 3537 c6 -8 8 -16 5 -20 -10 -10 41 -37 94 -49 29 -7 52 -16 52
-21 0 -5 -9 -6 -20 -3 -11 3 -28 8 -37 11 -10 3 -31 1 -48 -4 -28 -7 -29 -8
-8 -15 14 -5 20 -13 18 -26 -2 -10 3 -24 11 -31 8 -7 24 -25 36 -42 17 -23 18
-31 8 -37 -11 -7 -5 -19 23 -53 20 -25 37 -50 37 -55 0 -5 9 -17 21 -28 12
-10 29 -35 39 -55 10 -19 26 -41 34 -48 9 -8 16 -22 16 -32 0 -11 5 -19 10
-19 6 0 10 -8 10 -18 0 -10 18 -35 40 -57 21 -21 40 -48 42 -59 2 -12 8 -20
13 -19 6 0 25 -19 44 -43 27 -36 31 -47 21 -59 -9 -11 -9 -22 -1 -46 15 -42
13 -50 -3 -20 -9 16 -15 20 -21 12 -4 -7 0 -20 9 -30 9 -10 16 -24 16 -32 0
-12 2 -11 10 1 8 12 10 11 10 -7 0 -13 5 -23 10 -23 6 0 10 15 10 34 0 18 3
48 7 66 5 28 4 32 -10 27 -12 -5 -17 -1 -17 13 0 18 5 19 47 15 34 -3 53 -11
65 -27 19 -25 23 -44 10 -52 -5 -3 -8 -26 -7 -51 1 -25 -2 -45 -6 -45 -5 0 -9
-7 -9 -15 0 -8 -5 -15 -11 -15 -6 0 -8 7 -5 16 3 8 0 22 -8 29 -12 12 -15 12
-20 -3 -3 -9 -11 -25 -18 -35 -11 -14 -10 -19 2 -27 13 -8 12 -12 -7 -25 -14
-10 -20 -21 -16 -32 5 -12 2 -15 -9 -11 -11 5 -14 1 -10 -17 5 -28 -9 -38 -43
-29 -16 4 -24 12 -21 20 3 7 1 16 -4 19 -6 4 -10 -6 -10 -20 0 -18 6 -29 20
-32 23 -6 23 -5 11 -35 -5 -13 -12 -32 -16 -43 -6 -19 -7 -19 -20 -2 -12 16
-13 16 -17 -7 -3 -13 -1 -31 4 -40 5 -9 5 -16 1 -16 -11 1 -53 68 -53 86 0 8
-6 14 -12 14 -9 0 -8 4 2 10 13 8 12 10 -3 10 -11 0 -21 -9 -24 -20 -3 -11 -9
-20 -13 -20 -5 0 -6 8 -3 19 3 14 -4 22 -26 32 -17 8 -31 18 -31 22 0 5 -6 7
-12 4 -7 -2 -23 0 -35 4 -16 6 -23 5 -23 -4 0 -15 -81 -15 -182 -2 -72 9 -144
-1 -152 -21 -6 -15 27 -68 36 -59 3 3 17 -6 32 -20 28 -26 42 -31 48 -17 2 4
24 17 49 30 61 29 119 29 172 -2 23 -13 53 -27 67 -31 28 -9 49 -32 50 -56 0
-23 39 -31 73 -14 20 10 27 11 25 2 -3 -7 -14 -16 -26 -22 -28 -12 -29 -29 -2
-20 22 7 26 -5 8 -23 -9 -9 -7 -13 8 -18 10 -3 26 -8 34 -11 8 -4 22 -5 31 -4
9 1 19 -5 22 -14 9 -23 24 -19 72 20 26 22 45 47 49 65 4 21 11 30 26 30 15 0
20 7 20 26 0 17 6 28 20 31 14 4 17 10 11 20 -5 10 -1 33 10 62 10 25 20 58
23 72 3 14 15 36 26 49 13 15 18 31 14 45 -3 13 -1 25 4 29 5 3 8 22 6 43 -2
35 18 91 38 104 5 3 2 12 -7 19 -8 7 -15 21 -15 31 0 11 -5 19 -11 19 -7 0 -8
11 -4 29 3 17 2 32 -4 36 -6 3 -11 15 -11 26 0 11 -7 22 -15 25 -15 6 -21 49
-7 57 4 2 2 2 -5 1 -6 -2 -18 10 -25 27 -7 16 -17 29 -23 29 -5 0 -4 4 4 9 12
8 12 12 2 24 -8 11 -9 17 -1 22 6 4 -1 17 -20 33 -16 15 -30 33 -30 42 0 9 -7
26 -17 39 -16 24 -16 24 11 17 25 -6 26 -5 16 13 -12 23 -49 47 -65 42 -5 -1
-7 1 -3 4 7 8 -42 45 -75 58 -10 4 -17 13 -14 20 7 21 51 7 84 -28 22 -23 38
-32 52 -28 31 8 8 41 -45 64 -81 36 -53 62 81 73 99 8 236 31 295 50 l45 15
-40 -5 c-22 -3 -53 -10 -70 -15 -16 -4 -66 -8 -110 -8 -98 -1 -134 -1 -143 -2
-20 -3 -32 3 -32 15 0 20 -14 23 -110 25 -105 2 -282 19 -333 32 -26 7 -43 7
-51 0 -13 -11 -56 -4 -56 10 0 5 -5 9 -11 9 -8 0 -9 -4 0 -13z m511 -1101 c0
-3 -4 -8 -10 -11 -5 -3 -10 -1 -10 4 0 6 5 11 10 11 6 0 10 -2 10 -4z m-265
-66 c3 -5 1 -10 -4 -10 -6 0 -11 5 -11 10 0 6 2 10 4 10 3 0 8 -4 11 -10z
m-27 -39 c2 -6 1 -11 -3 -11 -14 0 -75 33 -75 40 0 11 74 -16 78 -29z m52 -21
c0 -5 -4 -10 -9 -10 -6 0 -13 5 -16 10 -3 6 1 10 9 10 9 0 16 -4 16 -10z"/>
<path d="M6828 3493 c7 -3 16 -2 19 1 4 3 -2 6 -13 5 -11 0 -14 -3 -6 -6z"/>
<path d="M6480 3189 c0 -11 4 -18 10 -14 5 3 7 12 3 20 -7 21 -13 19 -13 -6z"/>
<path d="M5340 3154 c-38 -16 -35 -32 9 -58 24 -14 35 -16 44 -7 6 6 31 11 57
11 51 1 102 32 82 52 -16 16 -154 18 -192 2z"/>
<path d="M6660 2660 c0 -5 5 -10 11 -10 5 0 7 5 4 10 -3 6 -8 10 -11 10 -2 0
-4 -4 -4 -10z"/>
<path d="M6293 2603 c-15 -5 -18 -33 -4 -33 8 0 25 30 19 35 -2 1 -9 0 -15 -2z"/>
<path d="M6365 2590 c3 -5 8 -10 11 -10 2 0 4 5 4 10 0 6 -5 10 -11 10 -5 0
-7 -4 -4 -10z"/>
<path d="M6346 2537 c3 -10 9 -15 12 -12 3 3 0 11 -7 18 -10 9 -11 8 -5 -6z"/>
<path d="M6255 2520 c-7 -12 2 -30 16 -30 12 0 12 27 0 35 -5 3 -12 1 -16 -5z"/>
<path d="M5013 2080 c2 -11 6 -22 9 -26 4 -3 4 -13 1 -22 -4 -14 -2 -14 11 1
11 15 12 24 4 43 -13 29 -29 32 -25 4z"/>
<path d="M5051 1874 c0 -11 3 -14 6 -6 3 7 2 16 -1 19 -3 4 -6 -2 -5 -13z"/>
<path d="M4936 1781 c-4 -7 -5 -15 -2 -18 9 -9 19 4 14 18 -4 11 -6 11 -12 0z"/>
<path d="M5005 1780 c3 -5 8 -10 11 -10 2 0 4 5 4 10 0 6 -5 10 -11 10 -5 0
-7 -4 -4 -10z"/>
<path d="M4960 1730 c0 -5 5 -10 11 -10 5 0 7 5 4 10 -3 6 -8 10 -11 10 -2 0
-4 -4 -4 -10z"/>
<path d="M4910 1626 c0 -8 5 -18 10 -21 6 -3 10 1 10 9 0 8 -4 18 -10 21 -5 3
-10 -1 -10 -9z"/>
<path d="M4835 1499 c-4 -6 -13 -8 -21 -5 -8 3 -14 1 -14 -4 0 -6 4 -10 9 -10
5 0 8 -7 7 -16 -2 -31 22 -25 33 7 6 18 11 34 11 35 0 9 -19 3 -25 -7z"/>
<path d="M4836 1401 c-4 -7 -5 -15 -2 -18 9 -9 19 4 14 18 -4 11 -6 11 -12 0z"/>
<path d="M6690 1366 c0 -29 38 -137 57 -164 61 -82 112 -241 113 -351 0 -34
-17 -142 -28 -171 -3 -8 -7 -25 -8 -37 -6 -48 -147 -350 -183 -390 -9 -10 -32
-41 -51 -68 -38 -55 -68 -91 -117 -141 -18 -18 -33 -36 -33 -39 0 -3 633 -5
1408 -4 938 0 1399 4 1382 10 -14 6 -43 27 -65 48 -22 21 -62 50 -90 64 -83
43 -158 77 -190 86 -57 18 -180 72 -196 87 -9 8 -48 26 -86 39 -37 12 -90 35
-117 49 -27 14 -54 26 -61 26 -17 0 -75 29 -110 56 -33 25 -174 84 -200 84 -9
0 -29 9 -45 20 -15 10 -56 33 -91 50 -35 17 -75 38 -89 46 -51 29 -238 114
-252 114 -8 0 -51 36 -96 80 -44 44 -84 80 -90 80 -5 0 -15 7 -23 16 -7 8 -29
24 -48 35 -20 11 -27 17 -16 14 18 -5 18 -4 5 8 -19 17 -136 67 -143 61 -3 -3
-20 4 -38 15 -22 13 -51 21 -81 21 -26 0 -60 6 -75 12 -24 11 -100 67 -141
106 -7 6 -21 12 -30 12 -12 0 -14 2 -4 8 9 6 6 14 -12 31 -15 14 -30 20 -37
16 -7 -5 -10 -4 -5 3 8 13 -49 58 -86 67 -16 4 -28 4 -28 1z m280 -221 c19
-21 21 -25 7 -25 -9 0 -17 5 -17 11 0 7 -8 18 -17 25 -10 7 -13 14 -7 14 6 0
21 -11 34 -25z m696 -427 c14 -22 23 -42 20 -45 -4 -4 -24 24 -61 86 -20 34
18 -4 41 -41z m44 -79 c0 -6 -4 -7 -10 -4 -5 3 -10 11 -10 16 0 6 5 7 10 4 6
-3 10 -11 10 -16z m26 -44 c1 -14 -2 -22 -7 -19 -11 6 -12 44 -1 44 4 0 8 -11
8 -25z m30 -47 c-10 -6 -20 -7 -24 -3 -9 8 20 25 31 18 5 -3 2 -10 -7 -15z
m49 -6 c-3 -3 -11 0 -18 7 -9 10 -8 11 6 5 10 -3 15 -9 12 -12z m-25 -43 c0
-11 -7 -19 -16 -19 -13 0 -14 3 -4 15 6 8 8 20 4 26 -4 8 -3 9 4 5 7 -4 12
-16 12 -27z m-6 -55 c3 -8 2 -12 -4 -9 -6 3 -10 10 -10 16 0 14 7 11 14 -7z
m35 -99 c0 -5 -6 -1 -14 9 -8 10 -11 24 -8 29 6 10 21 -16 22 -38z m-409 21
c0 -3 -4 -8 -10 -11 -5 -3 -10 -1 -10 4 0 6 5 11 10 11 6 0 10 -2 10 -4z m447
-168 c-3 -7 -5 -2 -5 12 0 14 2 19 5 13 2 -7 2 -19 0 -25z"/>
<path d="M6490 1300 c0 -5 5 -10 10 -10 6 0 10 5 10 10 0 6 -4 10 -10 10 -5 0
-10 -4 -10 -10z"/>
<path d="M4840 1240 c0 -5 5 -10 11 -10 5 0 7 5 4 10 -3 6 -8 10 -11 10 -2 0
-4 -4 -4 -10z"/>
<path d="M4793 1190 c-1 -10 9 -22 23 -29 18 -8 24 -8 24 2 -1 34 -45 60 -47
27z"/>
<path d="M4950 1180 c0 -18 4 -29 10 -25 6 3 10 15 10 25 0 10 -4 22 -10 25
-6 4 -10 -7 -10 -25z"/>
<path d="M5205 1200 c3 -5 8 -10 11 -10 2 0 4 5 4 10 0 6 -5 10 -11 10 -5 0
-7 -4 -4 -10z"/>
<path d="M6300 1169 c0 -5 5 -7 10 -4 6 3 10 8 10 11 0 2 -4 4 -10 4 -5 0 -10
-5 -10 -11z"/>
<path d="M5080 1107 c0 -19 16 -31 24 -18 3 5 -1 14 -9 21 -12 10 -15 10 -15
-3z"/>
<path d="M5415 1100 c3 -5 8 -10 11 -10 2 0 4 5 4 10 0 6 -5 10 -11 10 -5 0
-7 -4 -4 -10z"/>
<path d="M5280 1005 c0 -8 7 -15 16 -15 14 0 14 3 4 15 -7 8 -14 15 -16 15 -2
0 -4 -7 -4 -15z"/>
<path d="M6087 1003 c-12 -12 -7 -22 8 -17 8 4 15 10 15 15 0 11 -14 12 -23 2z"/>
<path d="M5415 970 c-3 -5 -1 -10 4 -10 6 0 11 5 11 10 0 6 -2 10 -4 10 -3 0
-8 -4 -11 -10z"/>
<path d="M5465 960 c3 -5 8 -10 11 -10 2 0 4 5 4 10 0 6 -5 10 -11 10 -5 0 -7
-4 -4 -10z"/>
<path d="M5402 911 c2 -7 7 -12 11 -12 12 1 9 15 -3 20 -7 2 -11 -2 -8 -8z"/>
<path d="M5605 880 c-10 -17 12 -37 25 -24 8 8 6 15 -4 23 -10 9 -16 9 -21 1z"/>
<path d="M5380 866 c0 -9 5 -16 10 -16 6 0 10 4 10 9 0 6 -4 13 -10 16 -5 3
-10 -1 -10 -9z"/>
<path d="M5500 870 c0 -5 5 -10 11 -10 5 0 7 5 4 10 -3 6 -8 10 -11 10 -2 0
-4 -4 -4 -10z"/>
<path d="M5466 853 c-11 -11 -6 -23 9 -23 8 0 15 4 15 9 0 13 -16 22 -24 14z"/>
<path d="M5294 825 c3 -9 6 -21 6 -26 0 -5 7 -9 15 -9 22 0 18 23 -6 39 -19
11 -21 11 -15 -4z"/>
<path d="M5369 799 c18 -16 36 -28 39 -25 7 8 -46 56 -61 56 -6 0 4 -14 22
-31z"/>
<path d="M5672 474 c-7 -8 -8 -14 -3 -14 10 0 25 19 20 25 -2 1 -10 -3 -17
-11z"/>
<path d="M5167 463 c-4 -3 2 -13 14 -21 26 -18 35 -10 11 11 -10 10 -22 14
-25 10z"/>
<path d="M5584 435 c-10 -8 -14 -15 -7 -15 19 0 43 11 43 21 0 13 -14 11 -36
-6z"/>
<path d="M5200 411 c0 -5 9 -15 19 -21 26 -13 28 -13 28 5 0 8 -4 15 -8 15 -4
0 -14 3 -23 6 -9 3 -16 1 -16 -5z"/>
<path d="M5445 360 c4 -6 11 -8 16 -5 14 9 11 15 -7 15 -8 0 -12 -5 -9 -10z"/>
<path d="M5458 253 c7 -3 16 -2 19 1 4 3 -2 6 -13 5 -11 0 -14 -3 -6 -6z"/>
<path d="M5518 223 c7 -3 16 -2 19 1 4 3 -2 6 -13 5 -11 0 -14 -3 -6 -6z"/>
<path d="M5316 171 c-3 -5 8 -14 24 -20 31 -10 36 -6 20 19 -6 10 -10 11 -10
3 0 -7 -5 -13 -11 -13 -5 0 -7 5 -4 10 3 6 2 10 -4 10 -5 0 -12 -4 -15 -9z"/>
<path d="M5530 110 c0 -6 7 -10 15 -10 8 0 15 2 15 4 0 2 -7 6 -15 10 -8 3
-15 1 -15 -4z"/>
<path d="M5322 78 c5 -15 28 -18 29 -3 0 6 -7 12 -17 13 -10 3 -15 -1 -12 -10z"/>
<path d="M5365 60 c-3 -5 -1 -10 4 -10 6 0 11 5 11 10 0 6 -2 10 -4 10 -3 0
-8 -4 -11 -10z"/>
<path d="M5250 32 c0 -12 19 -26 26 -19 2 2 -2 10 -11 17 -9 8 -15 8 -15 2z"/>
</g>
</svg>
